<svg width="40" height="40" viewBox="0 0 40 40" fill="none" xmlns="http://www.w3.org/2000/svg">
<mask id="mask0_0_77" style="mask-type:alpha" maskUnits="userSpaceOnUse" x="0" y="0" width="40" height="40">
<rect width="40" height="40" fill="#D9D9D9"/>
</mask>
<g mask="url(#mask0_0_77)">
<path d="M14.3267 37.523C12.985 37.523 11.7882 37.1467 10.7363 36.3942C9.68431 35.6414 8.91111 34.6488 8.41667 33.4163C7.96695 34.2071 7.38167 34.8175 6.66084 35.2475C5.94 35.6775 5.11848 35.8925 4.19625 35.8925C2.78848 35.8925 1.61098 35.3998 0.663753 34.4142C-0.283469 33.4287 -0.75708 32.2517 -0.75708 30.8834C-0.75708 29.4525 -0.292775 28.2807 0.635837 27.368C1.56473 26.4552 2.73139 26.0005 4.13584 26.0038C3.6625 25.443 3.30236 24.808 3.05542 24.0988C2.80875 23.3896 2.68542 22.6637 2.68542 21.9209C2.68542 20.7678 2.98709 19.695 3.59042 18.7025C4.19348 17.71 5.05209 16.9189 6.16625 16.3292C6.31542 16.8045 6.52375 17.3166 6.79125 17.8655C7.05848 18.4141 7.33014 18.8937 7.60625 19.3042C7.0957 19.6259 6.69959 20.0239 6.41792 20.4984C6.13598 20.9725 5.995 21.4766 5.995 22.0105C5.995 23.5743 6.65834 24.5417 7.985 24.9125C9.31195 25.2834 10.5451 25.5813 11.6846 25.8063L12.38 26.9905C12.0925 27.783 11.8292 28.5023 11.59 29.1484C11.3508 29.7945 11.2313 30.4228 11.2313 31.0334C11.2313 31.8748 11.5356 32.6174 12.1442 33.2613C12.7531 33.9052 13.491 34.2271 14.3579 34.2271C15.4082 34.2271 16.275 33.7717 16.9583 32.8609C17.6414 31.95 18.1993 30.8753 18.6321 29.6367C19.0646 28.3984 19.3996 27.1413 19.6371 25.8655C19.8746 24.5896 20.0668 23.5938 20.2138 22.878L23.4029 23.7692C23.1371 24.9992 22.8276 26.4066 22.4746 27.9913C22.1215 29.576 21.6188 31.0739 20.9663 32.485C20.3138 33.8961 19.4621 35.0885 18.4113 36.0621C17.3604 37.036 15.9989 37.523 14.3267 37.523ZM4.22417 32.5967C4.70445 32.5967 5.10542 32.4359 5.42709 32.1142C5.74875 31.7928 5.90959 31.3918 5.90959 30.9113C5.90959 30.4307 5.74875 30.0298 5.42709 29.7084C5.10542 29.3867 4.70445 29.2259 4.22417 29.2259C3.74361 29.2259 3.3425 29.3867 3.02084 29.7084C2.69945 30.0298 2.53875 30.4307 2.53875 30.9113C2.53875 31.3918 2.69945 31.7928 3.02084 32.1142C3.3425 32.4359 3.74361 32.5967 4.22417 32.5967ZM16.1879 24.6534C15.316 23.8628 14.4188 23.0452 13.4963 22.2005C12.5738 21.356 11.7303 20.4718 10.9658 19.548C10.2017 18.6238 9.575 17.6646 9.08584 16.6705C8.59667 15.676 8.35209 14.6238 8.35209 13.5138C8.35209 11.728 8.97195 10.2152 10.2117 8.97545C11.4514 7.73573 12.9642 7.11587 14.75 7.11587C14.9328 7.11587 15.1082 7.12157 15.2763 7.13296C15.4443 7.14407 15.6053 7.16295 15.7592 7.18962C15.5031 6.73434 15.3156 6.3199 15.1967 5.94629C15.0781 5.57268 15.0188 5.19143 15.0188 4.80254C15.0188 3.41587 15.5025 2.23893 16.47 1.27171C17.4375 0.304761 18.6151 -0.178711 20.0029 -0.178711C21.3904 -0.178711 22.5669 0.304761 23.5325 1.27171C24.4983 2.23893 24.9813 3.41587 24.9813 4.80254C24.9813 5.18004 24.9265 5.55962 24.8171 5.94129C24.7076 6.32296 24.5156 6.74226 24.2408 7.19921C24.3947 7.17282 24.5557 7.15226 24.7238 7.13754C24.8918 7.12309 25.0672 7.11587 25.25 7.11587C26.9569 7.11587 28.4043 7.67657 29.5921 8.79796C30.7796 9.91935 31.445 11.3042 31.5883 12.9525C31.0831 12.8695 30.5299 12.8352 29.9288 12.8496C29.3276 12.8641 28.7807 12.9017 28.2879 12.9625C28.1515 12.2256 27.8124 11.6161 27.2704 11.1342C26.7282 10.6525 26.0525 10.4117 25.2433 10.4117C24.2281 10.4117 23.4101 10.7462 22.7896 11.415C22.169 12.0839 21.4569 12.8884 20.6533 13.8284H19.3208C18.505 12.8642 17.7856 12.0538 17.1625 11.3971C16.5392 10.7402 15.735 10.4117 14.75 10.4117C13.8544 10.4117 13.1135 10.7049 12.5271 11.2913C11.941 11.8774 11.6479 12.6182 11.6479 13.5138C11.6479 14.2207 11.8769 14.9591 12.335 15.7288C12.7928 16.4985 13.3671 17.2667 14.0579 18.0334C14.7488 18.8003 15.4947 19.547 16.2958 20.2734C17.0969 20.9998 17.8381 21.6748 18.5192 22.2984L16.1879 24.6534ZM20 6.48796C20.4806 6.48796 20.8815 6.32712 21.2029 6.00546C21.5246 5.68407 21.6854 5.28309 21.6854 4.80254C21.6854 4.32198 21.5246 3.92101 21.2029 3.59962C20.8815 3.27796 20.4806 3.11712 20 3.11712C19.5194 3.11712 19.1185 3.27796 18.7971 3.59962C18.4754 3.92101 18.3146 4.32198 18.3146 4.80254C18.3146 5.28309 18.4754 5.68407 18.7971 6.00546C19.1185 6.32712 19.5194 6.48796 20 6.48796ZM25.625 37.5509C24.9556 37.5509 24.2938 37.445 23.6396 37.2334C22.9854 37.022 22.3619 36.7005 21.7692 36.2688C22.0611 35.8555 22.3617 35.3806 22.6708 34.8442C22.98 34.3075 23.2288 33.8039 23.4171 33.3334C23.7626 33.6489 24.1285 33.8807 24.5146 34.0288C24.9007 34.1766 25.2861 34.2505 25.6708 34.2505C26.5631 34.2505 27.3081 33.9228 27.9058 33.2675C28.5036 32.6123 28.8025 31.8613 28.8025 31.0146C28.8025 30.396 28.6796 29.7645 28.4338 29.12C28.1882 28.4756 27.9361 27.761 27.6775 26.9763L28.3333 25.8159C29.5008 25.5989 30.7449 25.3046 32.0654 24.933C33.3863 24.5616 34.0467 23.5931 34.0467 22.0275C34.0467 20.9106 33.6333 20.0959 32.8067 19.5834C31.9803 19.0709 31.0726 18.8146 30.0838 18.8146C28.7332 18.8146 27.2246 19.0721 25.5579 19.5871C23.8913 20.1024 22.3393 20.5948 20.9021 21.0642L20.0604 17.875C21.719 17.3323 23.41 16.8039 25.1333 16.29C26.8564 15.7759 28.5033 15.5188 30.0742 15.5188C31.9819 15.5188 33.6703 16.0845 35.1392 17.2159C36.6081 18.3473 37.3425 19.942 37.3425 22C37.3425 22.7373 37.219 23.4532 36.9721 24.148C36.7254 24.843 36.3706 25.4707 35.9075 26.0313C37.2831 26.023 38.4439 26.481 39.39 27.4055C40.3358 28.3299 40.8088 29.4985 40.8088 30.9113C40.8088 32.2796 40.335 33.4566 39.3875 34.4421C38.4403 35.4277 37.2628 35.9205 35.855 35.9205C34.9514 35.9205 34.126 35.7016 33.3788 35.2638C32.6315 34.826 32.0424 34.2116 31.6113 33.4205C31.0929 34.6688 30.3094 35.6692 29.2608 36.4217C28.2122 37.1745 27.0003 37.5509 25.625 37.5509ZM35.8746 32.6246C36.3326 32.6246 36.7201 32.4638 37.0371 32.1421C37.3543 31.8205 37.5129 31.4195 37.5129 30.9392C37.5129 30.4845 37.3475 30.083 37.0167 29.7346C36.6858 29.3863 36.2894 29.2121 35.8275 29.2121C35.3656 29.2121 34.9692 29.3775 34.6383 29.7084C34.3075 30.0392 34.1421 30.4356 34.1421 30.8975C34.1421 31.352 34.3163 31.7534 34.6646 32.1017C35.0129 32.4503 35.4163 32.6246 35.8746 32.6246Z" fill="#FF6E4E"/>
</g>
</svg>
