<svg width="40" height="40" viewBox="0 0 40 40" fill="none" xmlns="http://www.w3.org/2000/svg">
<mask id="mask0_0_84" style="mask-type:alpha" maskUnits="userSpaceOnUse" x="0" y="0" width="40" height="40">
<rect width="40" height="40" fill="#D9D9D9"/>
</mask>
<g mask="url(#mask0_0_84)">
<path d="M1.00708 21.9424V18.2778H4.57541C4.9768 14.6758 6.44264 11.5972 8.97291 9.04195C11.5035 6.4864 14.5749 5.00543 18.1871 4.59904V2.6582H21.8362V4.59904C25.4568 5.00543 28.5349 6.4864 31.0704 9.04195C33.606 11.5972 35.0744 14.6758 35.4758 18.2778H39.0163V21.9424H1.00708ZM8.24041 18.2778H31.7833C31.3661 15.3856 30.0549 12.9663 27.8496 11.0199C25.6443 9.07348 23.0278 8.10029 20 8.10029C17.0064 8.10029 14.4024 9.07348 12.1879 11.0199C9.97319 12.9663 8.65736 15.3856 8.24041 18.2778ZM24.6558 21.5736H13.4167V32.407H25.1425L33.5767 25.0861C33.2067 24.7533 32.8078 24.5036 32.38 24.337C31.9519 24.1703 31.5086 24.0853 31.05 24.082C30.6092 24.0853 30.1804 24.1615 29.7637 24.3107C29.3468 24.4599 28.9517 24.6924 28.5783 25.0082L24.5267 28.2403H17.5833V25.4624H23.5821L25.4475 23.907C25.7 23.71 25.8557 23.4749 25.9146 23.2015C25.9735 22.9282 25.9594 22.6633 25.8725 22.407C25.7961 22.1761 25.6497 21.9796 25.4333 21.8174C25.2169 21.6549 24.9578 21.5736 24.6558 21.5736ZM10.1208 21.5736H5.95416V34.0736H10.1208V21.5736ZM12.6896 37.3536H2.67375V18.2778H24.6321C26.8826 18.2778 29.0325 18.6818 31.0817 19.4899C33.1311 20.2979 34.8767 21.5482 36.3183 23.2407L38.1817 25.5078L26.3454 35.687H12.6896V37.3536Z" fill="#FF6E4E"/>
</g>
</svg>
