<svg width="40" height="40" viewBox="0 0 40 40" fill="none" xmlns="http://www.w3.org/2000/svg">
<mask id="mask0_0_91" style="mask-type:alpha" maskUnits="userSpaceOnUse" x="0" y="0" width="40" height="40">
<rect width="40" height="40" fill="#D9D9D9"/>
</mask>
<g mask="url(#mask0_0_91)">
<path d="M6.00714 33.9934V18.0663L3.20006 20.2154L0.997559 17.3004L20.0001 2.63086L39.0084 17.31L36.7921 20.2154L20.0001 7.25336L9.65631 15.2267V30.3442H18.0796V33.9934H6.00714ZM29.1667 37.2492C27.9106 38.0575 26.6064 38.4039 25.2542 38.2884C23.902 38.1728 22.7246 37.6113 21.7221 36.6038C20.7199 35.596 20.161 34.41 20.0455 33.0459C19.9299 31.682 20.2763 30.3891 21.0846 29.1671C20.2763 27.911 19.9299 26.6068 20.0455 25.2546C20.161 23.9024 20.7226 22.725 21.7301 21.7225C22.7378 20.7203 23.9238 20.1614 25.288 20.0459C26.6519 19.9303 27.9448 20.2767 29.1667 21.085C30.4228 20.2767 31.727 19.9303 33.0792 20.0459C34.4314 20.1614 35.6088 20.7229 36.6113 21.7304C37.6135 22.7382 38.1724 23.9242 38.288 25.2884C38.4035 26.6523 38.0571 27.9452 37.2488 29.1671C38.0571 30.4232 38.4035 31.7274 38.288 33.0796C38.1724 34.4318 37.6109 35.6092 36.6034 36.6117C35.5956 37.6139 34.4096 38.1728 33.0455 38.2884C31.6816 38.4039 30.3887 38.0575 29.1667 37.2492ZM29.1667 33.2279L31.0501 34.56C31.5587 34.9136 32.1188 35.0672 32.7305 35.0209C33.3421 34.9747 33.8626 34.7318 34.2917 34.2921C34.7273 33.8649 34.9692 33.3406 35.0176 32.7192C35.0659 32.0978 34.9185 31.5416 34.5755 31.0504L33.2276 29.1671L34.5755 27.2838C34.9185 26.7752 35.0669 26.215 35.0205 25.6034C34.9744 24.9917 34.7314 24.4713 34.2917 24.0421C33.8645 23.6066 33.3402 23.3646 32.7188 23.3163C32.0974 23.2679 31.5412 23.4153 31.0501 23.7584L29.1667 25.1063L27.2834 23.7584C26.7748 23.4153 26.2146 23.267 25.603 23.3134C24.9913 23.3595 24.4709 23.6024 24.0417 24.0421C23.6062 24.4693 23.3642 24.9936 23.3159 25.615C23.2676 26.2364 23.4202 26.7927 23.7738 27.2838L25.1059 29.1671L23.7738 31.0504C23.4202 31.5591 23.2666 32.1192 23.313 32.7309C23.3591 33.3425 23.602 33.8629 24.0417 34.2921C24.4689 34.7277 24.9933 34.9696 25.6146 35.0179C26.236 35.0663 26.7923 34.9136 27.2834 34.56L29.1667 33.2279ZM29.1696 31.2317C29.7521 31.2317 30.2414 31.0328 30.6376 30.635C31.0334 30.237 31.2313 29.7467 31.2313 29.1642C31.2313 28.5817 31.0324 28.0924 30.6346 27.6963C30.2366 27.3004 29.7463 27.1025 29.1638 27.1025C28.5813 27.1025 28.092 27.3014 27.6959 27.6992C27.3001 28.0972 27.1021 28.5875 27.1021 29.17C27.1021 29.7525 27.301 30.2418 27.6988 30.6379C28.0969 31.0338 28.5871 31.2317 29.1696 31.2317Z" fill="#FF6E4E"/>
</g>
</svg>
