<svg width="40" height="40" viewBox="0 0 40 40" fill="none" xmlns="http://www.w3.org/2000/svg">
<mask id="mask0_0_390" style="mask-type:alpha" maskUnits="userSpaceOnUse" x="0" y="0" width="40" height="40">
<rect width="40" height="40" fill="#D9D9D9"/>
</mask>
<g mask="url(#mask0_0_390)">
<path d="M0.771729 35.738V14.5243H4.44464V17.8576H7.8734V4.24634H11.5459V7.57967H14.6734V4.24634H18.3459V7.57967H21.6542V4.24634H25.3267V7.57967H28.4542V4.24634H32.1426V17.8576H35.5555V14.5243H39.2442V35.738H23.6113V26.3888H16.3888V35.738H0.771729ZM4.44464 32.0655H13.1638V23.1638H26.8363V32.0655H35.5555V21.5459H28.4542V11.268H11.5459V21.5459H4.44464V32.0655ZM15.1209 19.7222H17.8984V15.0001H15.1209V19.7222ZM22.1017 19.7222H24.8792V15.0001H22.1017V19.7222Z" fill="#292222"/>
</g>
</svg>
