<svg width="40" height="40" viewBox="0 0 40 40" fill="none" xmlns="http://www.w3.org/2000/svg">
<mask id="mask0_0_369" style="mask-type:alpha" maskUnits="userSpaceOnUse" x="0" y="0" width="40" height="40">
<rect width="40" height="40" fill="#D9D9D9"/>
</mask>
<g mask="url(#mask0_0_369)">
<path d="M11.7012 37.3262V30.9649H-1.52295L5.94455 20.0203H2.15205L14.7096 2.18701L20 9.7141L25.2904 2.18701L37.8479 20.0203H34.0991L41.5387 30.9649H28.3266V37.3262H22.3054V30.9649H17.722V37.3262H11.7012ZM28.4708 27.292H34.5658L27.0846 16.3478H30.6208L25.2904 8.77701L22.3412 13.0133L27.2433 20.0203H23.4787L28.4708 27.292ZM5.46205 27.292H23.9691L16.4879 16.3478H20.04L14.7096 8.77701L9.37913 16.3478H12.9433L5.46205 27.292ZM5.46205 27.292H12.9433H9.37913H20.04H16.4879H23.9691H5.46205ZM28.4708 27.292H23.4787H27.2433H22.3412H30.6208H27.0846H34.5658H28.4708Z" fill="#292222"/>
</g>
</svg>
