<svg width="40" height="40" viewBox="0 0 40 40" fill="none" xmlns="http://www.w3.org/2000/svg">
<mask id="mask0_0_379" style="mask-type:alpha" maskUnits="userSpaceOnUse" x="0" y="0" width="40" height="40">
<rect width="40" height="40" fill="#D9D9D9"/>
</mask>
<g mask="url(#mask0_0_379)">
<path d="M6.90923 34.3538V30.6654H10.3538V22.2504L0.771729 7.72876H23.6242L14.0421 22.2504V30.6654H17.4867V34.3538H6.90923ZM9.40631 14.4542H14.9896L16.9342 11.4017H7.47006L9.40631 14.4542ZM26.6846 34.3538C25.1349 34.3538 23.8366 33.8301 22.7896 32.7829C21.7427 31.7357 21.2192 30.4371 21.2192 28.8871C21.2192 27.3263 21.7427 26.0267 22.7896 24.9883C23.8366 23.9497 25.1349 23.4304 26.6846 23.4304C26.991 23.4304 27.2855 23.4574 27.568 23.5113C27.8505 23.5649 28.1459 23.6428 28.4542 23.745V7.72876H37.5776V13.3546H32.1426V28.8883C32.1426 30.4381 31.6188 31.7364 30.5713 32.7833C29.5235 33.8303 28.228 34.3538 26.6846 34.3538Z" fill="#292222"/>
</g>
</svg>
