<svg width="40" height="40" viewBox="0 0 40 40" fill="none" xmlns="http://www.w3.org/2000/svg">
<mask id="mask0_0_374" style="mask-type:alpha" maskUnits="userSpaceOnUse" x="0" y="0" width="40" height="40">
<rect width="40" height="40" fill="#D9D9D9"/>
</mask>
<g mask="url(#mask0_0_374)">
<path d="M26.9722 27.093C28.3394 27.093 29.4944 27.5644 30.4372 28.5072C31.3799 29.4502 31.8513 30.6052 31.8513 31.9722C31.8513 33.3394 31.3799 34.4944 30.4372 35.4372C29.4944 36.38 28.3394 36.8514 26.9722 36.8514C25.9327 36.8514 24.9916 36.5518 24.1488 35.9526C23.3058 35.3534 22.7288 34.5605 22.418 33.5739H10.9634L8.403 37.458L5.87134 35.653L13.663 23.7905C11.5344 22.9269 9.81078 21.513 8.49217 19.5489C7.17384 17.5847 6.49023 15.41 6.44134 13.0247H30.2809C30.2323 15.41 29.5375 17.5801 28.1963 19.5351C26.8552 21.4901 25.1429 22.8993 23.0593 23.7626L24.6993 26.2918C24.1934 26.4932 23.7223 26.7536 23.2859 27.073C22.8495 27.3925 22.4858 27.7477 22.1947 28.1389L19.9493 24.6697C19.6804 24.7252 19.4156 24.753 19.1551 24.753H17.5951C17.3345 24.753 17.0605 24.7252 16.773 24.6697L12.9772 30.4822H22.418C22.7288 29.4664 23.3011 28.6476 24.1347 28.0259C24.9686 27.404 25.9144 27.093 26.9722 27.093ZM26.9722 33.7597C27.4819 33.7597 27.9073 33.5893 28.2484 33.2484C28.5893 32.9073 28.7597 32.4819 28.7597 31.9722C28.7597 31.4627 28.5893 31.0375 28.2484 30.6964C27.9073 30.3552 27.4819 30.1847 26.9722 30.1847C26.4627 30.1847 26.0374 30.3552 25.6963 30.6964C25.3552 31.0375 25.1847 31.4627 25.1847 31.9722C25.1847 32.4819 25.3552 32.9073 25.6963 33.2484C26.0374 33.5893 26.4627 33.7597 26.9722 33.7597ZM18.3334 21.3943C20.009 21.3943 21.5516 20.945 22.9613 20.0464C24.3713 19.1475 25.4354 17.9344 26.1534 16.4072H10.5688C11.2541 17.9344 12.298 19.1475 13.7005 20.0464C15.103 20.945 16.6473 21.3943 18.3334 21.3943ZM14.2559 11.2097C14.4106 10.4227 14.4161 9.73691 14.2722 9.15219C14.1283 8.56775 13.7801 7.92302 13.2276 7.21802C12.5618 6.41941 12.1288 5.65066 11.9288 4.91177C11.7288 4.17261 11.727 3.33247 11.9234 2.39136H13.6026C13.4851 3.28664 13.499 4.01038 13.6443 4.56261C13.7893 5.11483 14.1168 5.71038 14.6268 6.34927C15.244 7.16066 15.657 7.94386 15.8659 8.69886C16.0745 9.45358 16.1055 10.2905 15.9588 11.2097H14.2559ZM18.153 11.2097C18.2758 10.2639 18.2695 9.51525 18.1343 8.96386C17.999 8.41219 17.6737 7.83025 17.1584 7.21802C16.4884 6.43136 16.0474 5.66789 15.8355 4.92761C15.6236 4.18733 15.6106 3.34191 15.7968 2.39136H17.4759C17.3215 3.16747 17.3194 3.84289 17.4697 4.41761C17.6199 4.99233 17.9634 5.63622 18.5001 6.34927C19.1131 7.15927 19.523 7.94108 19.7297 8.69469C19.9366 9.4483 19.9761 10.2866 19.848 11.2097H18.153ZM22.0138 11.2097C22.1552 10.293 22.1556 9.55428 22.0151 8.99344C21.8745 8.43261 21.5466 7.8408 21.0313 7.21802C20.3536 6.41302 19.9099 5.64025 19.7005 4.89969C19.4913 4.15941 19.4797 3.3233 19.6655 2.39136H21.3605C21.1955 3.16747 21.1888 3.84289 21.3405 4.41761C21.4924 4.99233 21.8419 5.63622 22.3888 6.34927C23.0022 7.14066 23.4134 7.91316 23.6226 8.66677C23.832 9.42038 23.8634 10.268 23.7168 11.2097H22.0138Z" fill="#292222"/>
</g>
</svg>
