<svg width="40" height="40" viewBox="0 0 40 40" fill="none" xmlns="http://www.w3.org/2000/svg">
<mask id="mask0_0_400" style="mask-type:alpha" maskUnits="userSpaceOnUse" x="0" y="0" width="40" height="40">
<rect width="40" height="40" fill="#D9D9D9"/>
</mask>
<g mask="url(#mask0_0_400)">
<path d="M31.3788 37.3263L21.3979 27.3276L20.0596 28.6655C19.3632 29.3463 18.5899 29.8559 17.7396 30.1943C16.8893 30.5326 16.0175 30.7018 15.1242 30.7018C14.2197 30.7018 13.3386 30.5326 12.4808 30.1943C11.6228 29.8559 10.8533 29.3463 10.1725 28.6655L2.89001 21.3605C2.20918 20.6694 1.69959 19.8977 1.36126 19.0455C1.02293 18.1936 0.85376 17.3204 0.85376 16.4259C0.85376 15.539 1.02293 14.6637 1.36126 13.8001C1.69959 12.9362 2.20918 12.1587 2.89001 11.4676L8.14501 6.20051C8.82584 5.51968 9.59793 5.01009 10.4613 4.67176C11.3246 4.33343 12.2029 4.16426 13.0963 4.16426C13.9899 4.16426 14.8608 4.33343 15.7092 4.67176C16.5572 5.01009 17.3295 5.51968 18.0258 6.20051L25.3225 13.5151C26.0033 14.2087 26.5168 14.9822 26.8629 15.8355C27.209 16.6891 27.3821 17.5626 27.3821 18.4559C27.3821 19.3495 27.2129 20.2279 26.8746 21.0909C26.5363 21.954 26.0189 22.7258 25.3225 23.4063L24.0079 24.7368L33.9513 34.718L31.3788 37.3263ZM15.205 27.1626C15.6975 27.1312 16.1701 27.0173 16.6229 26.8209C17.076 26.6248 17.4799 26.3547 17.8346 26.0105L22.8833 20.9413C23.2381 20.5908 23.5045 20.2044 23.6825 19.7822C23.8603 19.3597 23.9492 18.9226 23.9492 18.4709C23.9492 18.019 23.8603 17.5775 23.6825 17.1463C23.5045 16.7155 23.2388 16.323 22.8854 15.9688L15.6008 8.68009C15.2408 8.32621 14.8485 8.0619 14.4238 7.88718C13.9988 7.71245 13.5579 7.62509 13.1013 7.62509C12.6449 7.62509 12.2029 7.71509 11.7754 7.89509C11.3479 8.07509 10.9595 8.33718 10.61 8.68134L5.56876 13.7405C5.21654 14.095 4.94737 14.4962 4.76126 14.9443C4.57487 15.3923 4.46598 15.8548 4.43459 16.3318C4.41376 16.8076 4.47807 17.269 4.62751 17.7159C4.77723 18.1631 5.02501 18.5651 5.37084 18.9218L12.6438 26.1988C12.9943 26.5536 13.3892 26.808 13.8283 26.9622C14.2678 27.1166 14.7267 27.1834 15.205 27.1626ZM8.49334 18.3322C8.78279 18.3322 9.03293 18.2268 9.24376 18.0159C9.45432 17.8054 9.55959 17.5538 9.55959 17.2613C9.55959 16.9688 9.45432 16.7233 9.24376 16.5247C9.03293 16.3263 8.78279 16.2272 8.49334 16.2272C8.2039 16.2272 7.95376 16.3263 7.74293 16.5247C7.53237 16.7233 7.42709 16.9688 7.42709 17.2613C7.42709 17.5538 7.53237 17.8054 7.74293 18.0159C7.95376 18.2268 8.2039 18.3322 8.49334 18.3322ZM11.1879 15.6159C11.4774 15.6159 11.7274 15.5069 11.9379 15.2888C12.1488 15.0705 12.2542 14.82 12.2542 14.5372C12.2542 14.2544 12.1488 14.0101 11.9379 13.8043C11.7274 13.5981 11.4774 13.4951 11.1879 13.4951C10.8985 13.4951 10.6483 13.5981 10.4375 13.8043C10.2267 14.0101 10.1213 14.2544 10.1213 14.5372C10.1213 14.82 10.2267 15.0705 10.4375 15.2888C10.6483 15.5069 10.8985 15.6159 11.1879 15.6159ZM11.4558 21.3384C11.7453 21.3384 11.9954 21.2293 12.2063 21.0109C12.4171 20.7926 12.5225 20.542 12.5225 20.2593C12.5225 19.9768 12.4171 19.7325 12.2063 19.5263C11.9954 19.3205 11.7453 19.2176 11.4558 19.2176C11.1664 19.2176 10.9163 19.3205 10.7054 19.5263C10.4949 19.7325 10.3896 19.9768 10.3896 20.2593C10.3896 20.542 10.4949 20.7926 10.7054 21.0109C10.9163 21.2293 11.1664 21.3384 11.4558 21.3384ZM13.8796 12.8938C14.1624 12.8938 14.4128 12.7908 14.6308 12.5847C14.8492 12.3788 14.9583 12.1345 14.9583 11.8518C14.9583 11.569 14.8492 11.3186 14.6308 11.1005C14.4128 10.8822 14.1624 10.773 13.8796 10.773C13.5968 10.773 13.3525 10.8822 13.1467 11.1005C12.9406 11.3186 12.8375 11.569 12.8375 11.8518C12.8375 12.1345 12.9406 12.3788 13.1467 12.5847C13.3525 12.7908 13.5968 12.8938 13.8796 12.8938ZM14.1783 18.6063C14.4678 18.6063 14.7178 18.5034 14.9283 18.2976C15.1392 18.0915 15.2446 17.847 15.2446 17.5643C15.2446 17.2818 15.1392 17.0313 14.9283 16.813C14.7178 16.5947 14.4678 16.4855 14.1783 16.4855C13.8889 16.4855 13.6388 16.5947 13.4279 16.813C13.2171 17.0313 13.1117 17.2818 13.1117 17.5643C13.1117 17.847 13.2171 18.0915 13.4279 18.2976C13.6388 18.5034 13.8889 18.6063 14.1783 18.6063ZM14.495 24.3284C14.7747 24.3284 15.0238 24.2232 15.2421 24.0126C15.4604 23.8018 15.5696 23.5501 15.5696 23.2576C15.5696 22.9651 15.4604 22.717 15.2421 22.5134C15.0238 22.3098 14.7747 22.208 14.495 22.208C14.2156 22.208 13.9667 22.3109 13.7483 22.5168C13.53 22.7229 13.4208 22.9672 13.4208 23.2497C13.4208 23.5475 13.53 23.8018 13.7483 24.0126C13.9667 24.2232 14.2156 24.3284 14.495 24.3284ZM16.8821 15.8843C17.1715 15.8843 17.4217 15.7788 17.6325 15.568C17.8433 15.3572 17.9488 15.103 17.9488 14.8055C17.9488 14.5286 17.8433 14.2857 17.6325 14.0768C17.4217 13.8679 17.1715 13.7634 16.8821 13.7634C16.5927 13.7634 16.3426 13.8679 16.1321 14.0768C15.9213 14.2857 15.8158 14.5286 15.8158 14.8055C15.8158 15.103 15.9213 15.3572 16.1321 15.568C16.3426 15.7788 16.5927 15.8843 16.8821 15.8843ZM17.1738 21.6301C17.4632 21.6301 17.7133 21.5209 17.9242 21.3026C18.135 21.0843 18.2404 20.8337 18.2404 20.5509C18.2404 20.2684 18.135 20.0241 17.9242 19.818C17.7133 19.6122 17.4632 19.5093 17.1738 19.5093C16.8843 19.5093 16.6343 19.6122 16.4238 19.818C16.2129 20.0241 16.1075 20.2684 16.1075 20.5509C16.1075 20.8337 16.2129 21.0843 16.4238 21.3026C16.6343 21.5209 16.8843 21.6301 17.1738 21.6301ZM19.8404 18.9155C20.1329 18.9155 20.3845 18.8163 20.595 18.618C20.8058 18.4194 20.9113 18.1738 20.9113 17.8813C20.9113 17.5888 20.8058 17.3373 20.595 17.1268C20.3845 16.9159 20.1329 16.8105 19.8404 16.8105C19.5479 16.8105 19.3024 16.9159 19.1038 17.1268C18.9054 17.3373 18.8063 17.5888 18.8063 17.8813C18.8063 18.1738 18.9054 18.4194 19.1038 18.618C19.3024 18.8163 19.5479 18.9155 19.8404 18.9155ZM32.9871 14.0347C31.2782 14.0347 29.8317 13.4354 28.6475 12.2368C27.4633 11.0381 26.8713 9.59287 26.8713 7.90093C26.8713 6.20898 27.4649 4.76315 28.6521 3.56343C29.839 2.36343 31.2795 1.76343 32.9733 1.76343C34.6756 1.76343 36.1253 2.36287 37.3225 3.56176C38.5197 4.76093 39.1183 6.20398 39.1183 7.89093C39.1183 9.58565 38.5197 11.0333 37.3225 12.2338C36.1253 13.4344 34.6801 14.0347 32.9871 14.0347ZM32.9908 10.3697C33.6645 10.3697 34.2433 10.129 34.7275 9.64759C35.2114 9.16648 35.4533 8.58107 35.4533 7.89135C35.4533 7.20134 35.2118 6.61829 34.7288 6.14218C34.2457 5.66607 33.6624 5.42801 32.9788 5.42801C32.2951 5.42801 31.7172 5.66593 31.245 6.14176C30.7725 6.61732 30.5363 7.20315 30.5363 7.89926C30.5363 8.58371 30.774 9.16648 31.2496 9.64759C31.7254 10.129 32.3058 10.3697 32.9908 10.3697Z" fill="#292222"/>
</g>
</svg>
