<svg width="40" height="40" viewBox="0 0 40 40" fill="none" xmlns="http://www.w3.org/2000/svg">
<mask id="mask0_0_395" style="mask-type:alpha" maskUnits="userSpaceOnUse" x="0" y="0" width="40" height="40">
<rect width="40" height="40" fill="#D9D9D9"/>
</mask>
<g mask="url(#mask0_0_395)">
<path d="M3.04297 35.8949V32.4016C4.20269 32.346 5.08269 32.0589 5.68297 31.5403C6.28325 31.0217 7.26852 30.7624 8.6388 30.7624C10.0094 30.7624 11.0826 31.0542 11.8584 31.6378C12.6345 32.2212 13.4939 32.5128 14.4367 32.5128C15.3953 32.5128 16.2196 32.2212 16.9096 31.6378C17.5996 31.0542 18.6298 30.7624 20.0001 30.7624C21.3703 30.7624 22.4421 31.0542 23.2155 31.6378C23.9888 32.2212 24.8521 32.5128 25.8055 32.5128C26.7588 32.5128 27.5852 32.2212 28.2846 31.6378C28.9838 31.0542 30.0185 30.7624 31.3888 30.7624C32.7594 30.7624 33.7401 31.0217 34.3309 31.5403C34.922 32.0589 35.7974 32.346 36.9571 32.4016V35.8949C35.6535 35.8393 34.638 35.5384 33.9105 34.992C33.1827 34.4459 32.3421 34.1728 31.3888 34.1728C30.4355 34.1728 29.5907 34.4598 28.8546 35.0337C28.1182 35.6078 27.1019 35.8949 25.8055 35.8949C24.5094 35.8949 23.456 35.6078 22.6455 35.0337C21.8352 34.4598 20.9534 34.1728 20.0001 34.1728C19.0467 34.1728 18.188 34.4598 17.4238 35.0337C16.6599 35.6078 15.6298 35.8949 14.3334 35.8949C13.037 35.8949 12.0021 35.6078 11.2288 35.0337C10.4555 34.4598 9.59214 34.1728 8.6388 34.1728C7.68547 34.1728 6.84047 34.4459 6.1038 34.992C5.36686 35.5384 4.34658 35.8393 3.04297 35.8949ZM3.04297 27.882V24.4999C4.20269 24.4444 5.08269 24.162 5.68297 23.6528C6.28325 23.1434 7.26852 22.8887 8.6388 22.8887C10.0094 22.8887 11.0612 23.1573 11.7942 23.6945C12.5273 24.2314 13.3735 24.4999 14.333 24.4999C15.2866 24.4999 16.1269 24.2314 16.8538 23.6945C17.581 23.1573 18.6298 22.8887 20.0001 22.8887C21.3703 22.8887 22.4289 23.1573 23.1759 23.6945C23.9226 24.2314 24.7595 24.4999 25.6867 24.4999C26.6453 24.4999 27.4927 24.2314 28.2288 23.6945C28.9652 23.1573 30.0185 22.8887 31.3888 22.8887C32.7594 22.8887 33.7401 23.1434 34.3309 23.6528C34.922 24.162 35.7974 24.4444 36.9571 24.4999V27.882C35.6535 27.8264 34.638 27.5256 33.9105 26.9795C33.1827 26.4331 32.3421 26.1599 31.3888 26.1599C30.4355 26.1599 29.5885 26.447 28.848 27.0212C28.1071 27.595 27.0944 27.882 25.8096 27.882C24.5277 27.882 23.4773 27.595 22.6584 27.0212C21.8395 26.447 20.951 26.1599 19.993 26.1599C19.031 26.1599 18.1889 26.447 17.4667 27.0212C16.7445 27.595 15.7371 27.882 14.4446 27.882C13.1519 27.882 12.0994 27.595 11.2871 27.0212C10.4749 26.447 9.59214 26.1599 8.6388 26.1599C7.68547 26.1599 6.84047 26.4331 6.1038 26.9795C5.36686 27.5256 4.34658 27.8264 3.04297 27.882ZM28.1084 4.45532C29.3326 4.45532 30.3595 4.87532 31.1892 5.71532C32.0192 6.55532 32.4342 7.57352 32.4342 8.76991C32.4342 9.99074 32.0192 11.0163 31.1892 11.8466C30.3595 12.6766 29.3326 13.0916 28.1084 13.0916C26.8845 13.0916 25.8562 12.6778 25.0234 11.8503C24.1906 11.0225 23.7742 9.99824 23.7742 8.7774C23.7742 7.58102 24.1906 6.56157 25.0234 5.71907C25.8562 4.87657 26.8845 4.45532 28.1084 4.45532ZM14.3267 19.9849C13.772 19.9849 13.2235 19.8638 12.6813 19.6216C12.1391 19.3794 11.6916 19.0794 11.3388 18.7216L16.9596 13.1007L15.1159 11.2728L8.45964 8.90074V4.73657L18.0271 8.30532L28.6892 18.9445C28.2809 19.2753 27.8056 19.5314 27.2634 19.7128C26.7212 19.8942 26.2005 19.9849 25.7013 19.9849C24.6405 19.9849 23.7407 19.6978 23.0021 19.1237C22.2635 18.5495 21.2628 18.2624 20.0001 18.2624C18.7373 18.2624 17.7412 18.5495 17.0117 19.1237C16.2826 19.6978 15.3876 19.9849 14.3267 19.9849Z" fill="#292222"/>
</g>
</svg>
