<svg width="40" height="40" viewBox="0 0 40 40" fill="none" xmlns="http://www.w3.org/2000/svg">
<mask id="mask0_0_405" style="mask-type:alpha" maskUnits="userSpaceOnUse" x="0" y="0" width="40" height="40">
<rect width="40" height="40" fill="#D9D9D9"/>
</mask>
<g mask="url(#mask0_0_405)">
<path d="M20.0009 26.7767C16.569 26.7767 13.6565 25.5812 11.2634 23.1904C8.87036 20.7999 7.67383 17.8886 7.67383 14.4567C7.67383 11.0244 8.86924 8.11236 11.2601 5.72041C13.6506 3.32819 16.5619 2.13208 19.9938 2.13208C23.4261 2.13208 26.342 3.3293 28.7417 5.72375C31.1417 8.11819 32.3417 11.0292 32.3417 14.4567C32.3417 17.8839 31.143 20.794 28.7455 23.1871C26.3477 25.5801 23.4329 26.7767 20.0009 26.7767ZM19.9997 23.1037C22.4147 23.1037 24.4606 22.2653 26.1376 20.5883C27.8148 18.9114 28.6534 16.8656 28.6534 14.4508C28.6534 12.0358 27.8149 9.99375 26.138 8.32458C24.4611 6.65514 22.4152 5.82041 20.0005 5.82041C17.5855 5.82041 15.5395 6.65667 13.8626 8.32917C12.1854 10.0017 11.3467 12.0421 11.3467 14.4504C11.3467 16.8654 12.1852 18.9114 13.8622 20.5883C15.5391 22.2653 17.5849 23.1037 19.9997 23.1037ZM16.5555 14.3208C16.9352 14.3208 17.2616 14.1842 17.5347 13.9108C17.808 13.6378 17.9447 13.3114 17.9447 12.9317C17.9447 12.5522 17.808 12.2258 17.5347 11.9525C17.2616 11.6794 16.9352 11.5429 16.5555 11.5429C16.1761 11.5429 15.8497 11.6794 15.5763 11.9525C15.3033 12.2258 15.1667 12.5522 15.1667 12.9317C15.1667 13.3114 15.3033 13.6378 15.5763 13.9108C15.8497 14.1842 16.1761 14.3208 16.5555 14.3208ZM23.4447 14.3208C23.8241 14.3208 24.1505 14.1842 24.4238 13.9108C24.6969 13.6378 24.8334 13.3114 24.8334 12.9317C24.8334 12.5522 24.6969 12.2258 24.4238 11.9525C24.1505 11.6794 23.8241 11.5429 23.4447 11.5429C23.0649 11.5429 22.7386 11.6794 22.4655 11.9525C22.1922 12.2258 22.0555 12.5522 22.0555 12.9317C22.0555 13.3114 22.1922 13.6378 22.4655 13.9108C22.7386 14.1842 23.0649 14.3208 23.4447 14.3208ZM20.0001 10.7096C20.3798 10.7096 20.7062 10.5729 20.9792 10.2996C21.2523 10.0265 21.3888 9.70028 21.3888 9.32083C21.3888 8.94111 21.2523 8.61472 20.9792 8.34166C20.7062 8.06833 20.3798 7.93166 20.0001 7.93166C19.6204 7.93166 19.294 8.06833 19.0209 8.34166C18.7479 8.61472 18.6113 8.94111 18.6113 9.32083C18.6113 9.70028 18.7479 10.0265 19.0209 10.2996C19.294 10.5729 19.6204 10.7096 20.0001 10.7096ZM18.1638 37.8679V35.3508C18.1638 34.4961 17.8859 33.7922 17.3301 33.2392C16.774 32.6861 16.0713 32.4096 15.2222 32.4096H11.6355V28.7208H28.3805V32.4096H24.778C23.9288 32.4096 23.2262 32.6861 22.6701 33.2392C22.1142 33.7922 21.8363 34.4961 21.8363 35.3508V37.8679H18.1638Z" fill="#292222"/>
</g>
</svg>
