<svg width="44" height="46" viewBox="0 0 44 46" fill="none" xmlns="http://www.w3.org/2000/svg">
<path d="M22.2138 45.0951C18.883 45.0951 15.9344 44.5494 13.2589 43.458C10.5834 42.3666 8.39931 40.8386 6.54284 38.9286C4.74096 37.0186 3.32133 34.672 2.33849 31.9434C1.35565 29.2149 0.864258 26.2134 0.864258 22.8846C0.864258 19.5557 1.41033 16.336 2.55698 13.6074C3.70363 10.8789 5.23244 8.58686 7.14351 6.62229C9.05459 4.76686 11.3479 3.29343 13.9688 2.25658C16.5897 1.21972 19.3744 0.728577 22.2683 0.728577C25.4352 0.728577 28.3838 1.21972 31.0047 2.31115C33.6802 3.40258 35.9189 4.87601 37.8299 6.78601C39.6864 8.696 41.1607 11.0426 42.2528 13.7711C43.3448 16.4997 43.8362 19.5557 43.8362 22.8846C43.8362 26.5954 43.2902 29.7606 42.0889 32.5437C40.8877 35.3269 39.3042 37.6189 37.3386 39.4743C35.3729 41.2751 33.025 42.694 30.4041 43.6217C27.7832 44.604 25.053 45.0406 22.2683 45.0406L22.2138 45.0951ZM22.2138 40.4566C26.9642 40.4566 30.8409 38.9831 33.7894 35.9817C36.7925 32.9803 38.2668 28.6691 38.2668 22.9937C38.2668 17.3183 36.7925 13.2254 33.8986 10.1149C31.0047 7.05886 27.0734 5.47629 22.2138 5.47629C17.3542 5.47629 13.4774 7.00429 10.5835 10.1149C7.68956 13.2254 6.26982 17.482 6.26982 22.9937C6.26982 28.5054 7.68956 32.9257 10.5835 35.9817C13.4774 38.9831 17.3542 40.5111 22.2138 40.5111V40.4566ZM21.9408 12.0249C23.7972 12.0249 25.3807 12.1886 26.582 12.5706C27.8378 12.9526 28.7114 13.4437 29.4212 14.044C30.0765 14.6443 30.5679 15.3537 30.7863 16.1177C31.0047 16.9363 31.1138 17.6457 31.1138 18.4097C31.1138 19.9923 30.8955 21.1929 30.4041 22.1206C29.9127 23.0483 28.9845 23.7577 27.674 24.4671L32.1514 33.1986H26.5273L22.8143 25.6131H18.6646V33.1986H13.6958V12.0249H21.8315H21.9408ZM22.4321 21.4657C23.961 21.4657 24.9984 21.1929 25.4353 20.5926C25.8721 20.0469 26.0905 19.3374 26.0905 18.5189C26.0905 17.8094 25.8175 17.1546 25.1622 16.718C24.507 16.2814 23.4149 16.0086 21.8315 16.0086H18.7738V21.4657H22.4868H22.4321Z" fill="#DEFF4E"/>
</svg>
