<svg width="104" height="34" viewBox="0 0 104 34" fill="none" xmlns="http://www.w3.org/2000/svg">
<g clip-path="url(#clip0_0_182)">
<path d="M54.6201 8.8215C54.6201 9.98757 53.6812 10.9269 52.5156 10.9269C51.35 10.9269 50.4111 9.98757 50.4111 8.8215C50.4111 7.65543 51.3177 6.7161 52.5156 6.7161C53.7135 6.74849 54.6201 7.68783 54.6201 8.8215ZM45.9431 13.0647C45.9431 13.259 45.9431 13.583 45.9431 13.583C45.9431 13.583 44.9395 12.2873 42.8026 12.2873C39.2736 12.2873 36.5216 14.9758 36.5216 18.7007C36.5216 22.3933 39.2412 25.1141 42.8026 25.1141C44.9719 25.1141 45.9431 23.7861 45.9431 23.7861V24.3367C45.9431 24.5958 46.1374 24.7902 46.3964 24.7902H49.0189V12.6112C49.0189 12.6112 46.6231 12.6112 46.3964 12.6112C46.1374 12.6112 45.9431 12.838 45.9431 13.0647ZM45.9431 20.8709C45.4575 21.5835 44.4862 22.1989 43.3206 22.1989C41.2485 22.1989 39.6621 20.9033 39.6621 18.7007C39.6621 16.4981 41.2485 15.2025 43.3206 15.2025C44.4538 15.2025 45.4899 15.8503 45.9431 16.5305V20.8709ZM50.9615 12.6112H54.0697V24.7902H50.9615V12.6112ZM97.3896 12.2873C95.2527 12.2873 94.2491 13.583 94.2491 13.583V6.74849H91.1409V24.7902C91.1409 24.7902 93.5368 24.7902 93.7634 24.7902C94.0224 24.7902 94.2167 24.5634 94.2167 24.3367V23.7861C94.2167 23.7861 95.2204 25.1141 97.3572 25.1141C100.886 25.1141 103.638 22.3933 103.638 18.7007C103.638 15.0082 100.886 12.2873 97.3896 12.2873ZM96.8716 22.1665C95.6736 22.1665 94.7347 21.5511 94.2491 20.8385V16.4981C94.7347 15.8503 95.7708 15.1701 96.8716 15.1701C98.9437 15.1701 100.53 16.4657 100.53 18.6683C100.53 20.8709 98.9437 22.1665 96.8716 22.1665ZM89.5221 17.567V24.8226H86.4139V17.9233C86.4139 15.9151 85.7664 15.1053 84.018 15.1053C83.0791 15.1053 82.1078 15.5912 81.4927 16.3038V24.7902H78.3845V12.6112H80.8451C81.1041 12.6112 81.2984 12.838 81.2984 13.0647V13.583C82.205 12.6436 83.4029 12.2873 84.6008 12.2873C85.9606 12.2873 87.0938 12.676 88.0004 13.4534C89.1012 14.3603 89.5221 15.5264 89.5221 17.567ZM70.8408 12.2873C68.7039 12.2873 67.7002 13.583 67.7002 13.583V6.74849H64.5921V24.7902C64.5921 24.7902 66.9879 24.7902 67.2146 24.7902C67.4736 24.7902 67.6679 24.5634 67.6679 24.3367V23.7861C67.6679 23.7861 68.6715 25.1141 70.8084 25.1141C74.3374 25.1141 77.0894 22.3933 77.0894 18.7007C77.1218 15.0082 74.3698 12.2873 70.8408 12.2873ZM70.3227 22.1665C69.1248 22.1665 68.1859 21.5511 67.7002 20.8385V16.4981C68.1859 15.8503 69.2219 15.1701 70.3227 15.1701C72.3948 15.1701 73.9813 16.4657 73.9813 18.6683C73.9813 20.8709 72.3948 22.1665 70.3227 22.1665ZM61.9048 12.2873C62.8437 12.2873 63.3294 12.4493 63.3294 12.4493V15.3321C63.3294 15.3321 60.7393 14.4575 59.1204 16.3038V24.8226H56.0123V12.6112C56.0123 12.6112 58.4081 12.6112 58.6348 12.6112C58.8938 12.6112 59.0881 12.838 59.0881 13.0647V13.583C59.6708 12.9027 60.9335 12.2873 61.9048 12.2873ZM29.6253 23.6889C29.4635 23.3002 29.3016 22.8791 29.1397 22.5228C28.8807 21.9398 28.6217 21.3891 28.395 20.8709L28.3627 20.8385C26.1287 15.9799 23.7328 11.0565 21.2074 6.19785L21.1103 6.0035C20.8513 5.51764 20.5923 4.99939 20.3333 4.48113C20.0095 3.8981 19.6857 3.28267 19.1677 2.69964C18.1316 1.404 16.6423 0.691406 15.0559 0.691406C13.437 0.691406 11.9801 1.404 10.9117 2.63486C10.426 3.21789 10.0699 3.83332 9.7461 4.41635C9.48709 4.93461 9.22808 5.45286 8.96907 5.93872L8.87194 6.13307C6.37894 10.9917 3.95069 15.9151 1.71671 20.7737L1.68433 20.8385C1.45769 21.3568 1.19868 21.9074 0.939667 22.4904C0.777784 22.8467 0.6159 23.2354 0.454017 23.6565C0.0331215 24.855 -0.0963849 25.9886 0.0654981 27.1547C0.421641 29.584 2.04047 31.6246 4.27446 32.5316C5.11625 32.8879 5.99042 33.0498 6.89696 33.0498C7.15597 33.0498 7.47974 33.0175 7.73875 32.9851C8.80718 32.8555 9.90799 32.4992 10.9764 31.8838C12.3039 31.1388 13.5665 30.0699 14.9911 28.5151C16.4157 30.0699 17.7108 31.1388 19.0058 31.8838C20.0742 32.4992 21.175 32.8555 22.2435 32.9851C22.5025 33.0175 22.8263 33.0498 23.0853 33.0498C23.9918 33.0498 24.8984 32.8879 25.7078 32.5316C27.9741 31.6246 29.5606 29.5516 29.9167 27.1547C30.1757 26.021 30.0462 24.8874 29.6253 23.6889ZM15.0235 25.3732C13.2752 23.1706 12.142 21.0976 11.7535 19.3485C11.5916 18.6035 11.5592 17.9557 11.6563 17.3727C11.7211 16.8544 11.9153 16.401 12.1743 16.0123C12.7895 15.1377 13.8256 14.5871 15.0235 14.5871C16.2214 14.5871 17.2899 15.1053 17.8726 16.0123C18.1316 16.401 18.3259 16.8544 18.3907 17.3727C18.4878 17.9557 18.4554 18.6359 18.2935 19.3485C17.905 21.0652 16.7718 23.1383 15.0235 25.3732ZM27.9418 26.8956C27.7151 28.5799 26.5819 30.0375 24.9955 30.6853C24.2184 31.0092 23.3767 31.1064 22.5349 31.0092C21.7254 30.9121 20.916 30.6529 20.0742 30.1671C18.9087 29.5192 17.7431 28.5151 16.3833 27.0252C18.5202 24.4015 19.8152 22.0046 20.3009 19.8668C20.5275 18.8627 20.5599 17.9557 20.4628 17.1136C20.3333 16.3038 20.0419 15.5588 19.5886 14.911C18.5849 13.4534 16.9013 12.6112 15.0235 12.6112C13.1456 12.6112 11.4621 13.4858 10.4584 14.911C10.0051 15.5588 9.71373 16.3038 9.58422 17.1136C9.45471 17.9557 9.48709 18.8951 9.7461 19.8668C10.2318 22.0046 11.5592 24.4339 13.6637 27.0575C12.3362 28.5475 11.1383 29.5516 9.97274 30.1995C9.13095 30.6853 8.32153 30.9444 7.51212 31.0416C6.63795 31.1388 5.79616 31.0092 5.0515 30.7177C3.46504 30.0699 2.33186 28.6123 2.10522 26.928C2.00809 26.1182 2.07285 25.3084 2.39661 24.4015C2.49374 24.0776 2.65563 23.7537 2.81751 23.365C3.04415 22.8467 3.30316 22.2961 3.56217 21.7454L3.59455 21.6807C5.82853 16.8544 8.2244 11.931 10.7174 7.13718L10.8145 6.94284C11.0735 6.45697 11.3326 5.93872 11.5916 5.45286C11.8506 4.93461 12.142 4.44874 12.4981 4.02766C13.178 3.25028 14.0846 2.8292 15.0882 2.8292C16.0919 2.8292 16.9985 3.25028 17.6784 4.02766C18.0345 4.44874 18.3259 4.93461 18.5849 5.45286C18.8439 5.93872 19.1029 6.45697 19.362 6.94284L19.4591 7.13718C21.9197 11.9634 24.3156 16.8868 26.5496 21.7131V21.7454C26.8086 22.2637 27.0352 22.8467 27.2942 23.365C27.4561 23.7537 27.618 24.0776 27.7151 24.4015C27.9741 25.2437 28.0713 26.0534 27.9418 26.8956Z" fill="#A0FFE8"/>
</g>
<defs>
<clipPath id="clip0_0_182">
<rect width="103.638" height="32.3584" fill="white" transform="translate(0 0.691406)"/>
</clipPath>
</defs>
</svg>
