<svg width="105" height="22" viewBox="0 0 105 22" fill="none" xmlns="http://www.w3.org/2000/svg">
<g clip-path="url(#clip0_0_184)">
<path d="M59.364 6.30815H55.5147C55.3576 6.30815 55.207 6.3702 55.0959 6.48065C54.9848 6.5911 54.9224 6.7409 54.9224 6.8971V8.31796C53.9838 6.91919 52.2856 5.98716 50.2928 5.98716C45.8408 5.98716 42.9982 9.45317 42.9982 13.8232C42.9982 18.2816 45.9593 21.7196 50.3224 21.7196C52.4618 21.7196 53.9557 20.8156 54.9224 19.3299V20.8023C54.9224 20.9585 54.9848 21.1083 55.0959 21.2188C55.207 21.3292 55.3576 21.3913 55.5147 21.3913H59.364C59.5211 21.3913 59.6717 21.3292 59.7828 21.2188C59.8939 21.1083 59.9563 20.9585 59.9563 20.8023V6.89857C59.9565 6.82111 59.9413 6.74436 59.9116 6.67274C59.8819 6.60111 59.8383 6.53601 59.7833 6.48117C59.7283 6.42632 59.663 6.38281 59.591 6.35312C59.5191 6.32343 59.4419 6.30815 59.364 6.30815ZM51.5172 17.7928C49.3793 17.7928 48.0602 16.0436 48.0602 13.8291C48.0602 11.703 49.3201 9.95525 51.4654 9.95525C53.6107 9.95525 55.0394 11.5572 55.0394 13.9749C55.0364 16.3601 53.513 17.7884 51.5202 17.7884L51.5172 17.7928ZM86.2772 6.30815H82.4278C82.2708 6.30815 82.1201 6.3702 82.0091 6.48065C81.898 6.5911 81.8356 6.7409 81.8356 6.8971V8.31796C80.8984 6.91919 79.2003 5.98716 77.2075 5.98716C72.7555 5.98716 69.9129 9.45317 69.9129 13.8232C69.9129 18.2816 72.8739 21.7196 77.2371 21.7196C79.375 21.7196 80.8703 20.8156 81.8356 19.3299V20.8023C81.8356 20.9585 81.898 21.1083 82.0091 21.2188C82.1201 21.3292 82.2708 21.3913 82.4278 21.3913H86.2772C86.4343 21.3913 86.5849 21.3292 86.696 21.2188C86.8071 21.1083 86.8694 20.9585 86.8694 20.8023V6.89857C86.8698 6.74263 86.808 6.59289 86.6976 6.48221C86.5871 6.37152 86.437 6.30893 86.2802 6.30815H86.2772ZM78.4304 17.7928C76.2925 17.7928 74.9733 16.0436 74.9733 13.8291C74.9733 11.703 76.2333 9.95525 78.3786 9.95525C80.5239 9.95525 81.9511 11.5572 81.9511 13.9749C81.9511 16.3601 80.4336 17.7884 78.4363 17.7884L78.4304 17.7928ZM68.841 17.7663H68.0444C67.4137 17.7457 67.1354 17.2686 67.1354 16.6237V16.3292V1.22105C67.1354 1.06485 67.073 0.915042 66.9619 0.804591C66.8509 0.694141 66.7002 0.632091 66.5432 0.632091H62.8004C62.6433 0.632091 62.4927 0.694141 62.3816 0.804591C62.2706 0.915042 62.2082 1.06485 62.2082 1.22105V16.3572C62.2082 20.6904 65.0079 21.6961 67.6328 21.6961C67.9941 21.6961 68.3405 21.6725 68.8943 21.6269C69.0432 21.6154 69.1823 21.5483 69.2836 21.439C69.385 21.3298 69.441 21.1865 69.4406 21.0379V18.3523C69.4408 18.2747 69.4256 18.1978 69.3958 18.1261C69.366 18.0544 69.3223 17.9892 69.2671 17.9344C69.212 17.8795 69.1464 17.836 69.0743 17.8064C69.0022 17.7768 68.9249 17.7617 68.8469 17.7619L68.841 17.7663ZM98.6664 5.98716C96.7343 5.98716 95.2389 6.68508 94.1552 8.28851V6.8971C94.1552 6.7409 94.0928 6.5911 93.9817 6.48065C93.8706 6.3702 93.72 6.30815 93.563 6.30815H89.7136C89.5565 6.30815 89.4059 6.3702 89.2948 6.48065C89.1837 6.5911 89.1213 6.7409 89.1213 6.8971V20.8082C89.1213 20.9644 89.1837 21.1142 89.2948 21.2247C89.4059 21.3351 89.5565 21.3972 89.7136 21.3972H93.563C93.72 21.3972 93.8706 21.3351 93.9817 21.2247C94.0928 21.1142 94.1552 20.9644 94.1552 20.8082V13.2431C94.1552 11.5233 94.7696 10.0038 96.5862 10.0038C98.4324 10.0038 98.9891 11.781 98.9891 13.2431V20.8097C98.9891 20.9659 99.0515 21.1157 99.1626 21.2262C99.2736 21.3366 99.4243 21.3987 99.5813 21.3987H103.431C103.588 21.3987 103.738 21.3366 103.849 21.2262C103.961 21.1157 104.023 20.9659 104.023 20.8097V12.9516C104.035 9.65488 103.098 5.98864 98.6723 5.98864L98.6664 5.98716ZM26.9462 15.593C25.6626 15.0188 23.9378 15.9979 22.4795 16.235C20.7865 16.5434 19.0513 16.5434 17.3583 16.235C15.9014 15.9979 14.1766 15.0203 12.893 15.593C12.2415 15.8875 12.0417 16.6001 12.3008 17.4526C12.4934 18.0431 12.8295 18.5772 13.2794 19.0075C14.2062 19.881 15.2941 20.568 16.4833 21.0306C17.5694 21.4863 18.7363 21.7211 19.9152 21.7211C21.094 21.7211 22.2609 21.4863 23.347 21.0306C24.5355 20.5674 25.6228 19.8805 26.5494 19.0075C27.0006 18.5794 27.3387 18.0474 27.534 17.4585C27.7975 16.6001 27.5977 15.8846 26.9462 15.593ZM39.436 4.74005C39.436 4.71944 39.436 4.69735 39.436 4.67674C39.436 4.61343 39.4272 4.55011 39.4212 4.4868V4.47208C39.4212 4.4014 39.4049 4.32484 39.3961 4.26153V4.23797C39.3872 4.17466 39.3768 4.11281 39.365 4.0495V4.02742C39.3516 3.9641 39.3383 3.90079 39.3235 3.83748C39.3237 3.83405 39.3237 3.83061 39.3235 3.82717C38.9119 2.10742 37.5632 0.711599 35.7702 0.383257C33.3495 -0.0584595 31.0325 1.61859 30.6032 4.13048C30.5943 4.1884 30.5869 4.24582 30.5809 4.30275C30.4329 5.67207 31.336 6.94274 32.6537 7.18569C33.131 7.27431 33.6241 7.21841 34.0691 7.0252C34.2479 6.94779 34.4458 6.92494 34.6377 6.95954C34.8296 6.99415 35.0068 7.08464 35.1469 7.21955C35.5001 7.56072 35.9466 7.79068 36.4305 7.88066C37.8119 8.13391 39.1296 7.17833 39.3738 5.74422C39.4101 5.52649 39.4318 5.30663 39.439 5.08606C39.439 5.05956 39.439 5.03159 39.439 5.00508C39.439 4.97858 39.439 4.96975 39.439 4.95355C39.439 4.93735 39.439 4.91232 39.439 4.89318C39.439 4.84165 39.4375 4.796 39.436 4.74005ZM19.9196 0.979574C15.0338 0.979574 11.9943 2.69343 11.9943 5.45122C11.9943 8.66691 15.1034 13.0561 19.9196 13.0561C24.6573 13.0561 27.8449 8.61832 27.8449 5.45122C27.8449 2.65073 24.8824 0.979574 19.9196 0.979574ZM9.24346 4.13048C8.81411 1.61859 6.49707 -0.0628766 4.07639 0.383257C2.29086 0.711599 0.942095 2.10742 0.530506 3.82717V3.83748C0.5157 3.90079 0.502376 3.9641 0.489051 4.02742V4.0495C0.477207 4.11281 0.466844 4.17466 0.457961 4.23797C0.457149 4.2458 0.457149 4.25369 0.457961 4.26153C0.447597 4.33073 0.438713 4.4014 0.43131 4.47208V4.4868C0.43131 4.55159 0.420946 4.6149 0.416504 4.67821C0.416504 4.69883 0.416504 4.71944 0.416504 4.74005C0.416504 4.79159 0.416504 4.84165 0.416504 4.88729C0.416504 4.90643 0.416504 4.92705 0.416504 4.94766C0.416504 4.96827 0.416504 4.98152 0.416504 4.99919C0.416504 5.01686 0.416504 5.05367 0.416504 5.08017C0.423676 5.30074 0.445438 5.5206 0.481648 5.73833C0.727417 7.17244 2.04509 8.12802 3.42495 7.87477C3.90891 7.78479 4.35543 7.55483 4.70858 7.21366C4.84868 7.07875 5.02592 6.98825 5.21781 6.95365C5.4097 6.91905 5.6076 6.9419 5.78641 7.01931C6.23141 7.21252 6.72449 7.26843 7.2018 7.1798C8.53428 6.93686 9.42261 5.66618 9.28195 4.29686C9.26517 4.24386 9.25234 4.1884 9.24346 4.13048Z" fill="#A0FFE8"/>
</g>
<defs>
<clipPath id="clip0_0_184">
<rect width="103.638" height="21.4969" fill="white" transform="translate(0.439941 0.12207)"/>
</clipPath>
</defs>
</svg>
