<svg width="100" height="30" viewBox="0 0 100 30" fill="none" xmlns="http://www.w3.org/2000/svg">
<path d="M8.15228 26.5503C3.41793 26.5503 2.7006 25.9856 2.94339 24.9013C3.11996 24.1333 6.99353 9.36085 7.08181 9.02203C7.46806 7.44087 9.09033 7.82487 9.15654 7.83616C9.20068 7.84745 9.23379 7.89263 9.22276 7.9378C9.07929 9.20273 6.80592 21.6826 6.78385 21.8407C6.59624 23.0717 6.78385 23.1959 8.27368 23.1959C15.6346 23.1959 18.3052 17.9894 19.0336 13.8333C20.2917 6.6277 13.3833 4.47056 3.749 5.35149C3.66072 5.36278 3.02064 5.39666 2.74475 5.26113C2.38057 5.08043 2.07156 4.62867 1.99431 4.38021C1.96121 4.28985 1.96121 4.1995 1.99431 4.14303C2.01638 4.10915 2.03846 4.07527 2.07156 4.06397C5.18366 3.49928 9.50969 2.74258 12.3017 3.04752C22.874 4.18821 22.874 10.9985 22.256 14.4431C21.9139 16.4422 20.1261 26.5503 8.15228 26.5503ZM46.0492 22.1004C45.365 24.4835 43.2792 26.1324 40.8513 26.2001C38.8097 26.3131 36.7681 25.1272 35.8742 23.2976C35.521 22.6087 35.3224 21.8633 35.2452 20.9823C34.9361 21.1292 34.6161 21.2647 34.2961 21.3663C33.8767 22.5748 33.1483 23.6929 32.1441 24.4609C29.9921 26.0985 27.0787 26.5728 24.4632 25.1046C21.2407 22.8345 21.638 18.2605 23.8893 15.5725C26.1296 12.8846 30.2459 12.4328 32.3096 13.7542C33.7112 14.6803 34.4616 16.2727 34.6603 17.933C34.9582 17.7184 35.2231 17.4473 35.5321 17.0859C35.819 16.7358 36.3818 15.8775 36.3818 15.8775C36.7129 15.3579 37.1212 14.8723 37.5737 14.4544C38.5228 13.6074 39.7257 13.1895 40.9396 13.1895C41.988 13.1895 43.0585 13.5057 43.9855 14.1495C44.2835 14.3528 44.3607 14.4657 44.2614 14.6351C44.129 14.8836 43.9855 15.1095 43.8089 15.3241C43.4779 15.7306 43.1357 15.5838 42.904 15.4822C42.8709 15.4709 42.8378 15.4483 42.8047 15.437C41.7673 15.0643 40.9175 15.1434 40.0347 15.6855C38.1255 16.8713 37.8386 19.1753 38.1917 20.9372C38.5559 22.7329 39.527 23.3428 40.2885 23.5348C41.679 23.8962 43.5441 23.1282 44.7249 21.7051C45.078 21.276 45.6188 21.5583 46.005 21.8746C46.0271 21.8858 46.0382 21.8971 46.0492 21.9084C46.1044 21.9762 46.0492 22.0891 46.0492 22.1004ZM31.5371 16.0469C30.1135 14.2398 27.5311 14.8497 26.0744 16.5212C24.6177 18.204 24.5956 20.9597 26.1848 22.123C27.6746 23.2072 30.0473 22.6312 31.2171 20.892C32.0337 19.6722 32.7731 17.6167 31.5371 16.0469ZM67.1607 19.8416C66.962 21.6035 66.0792 23.3879 64.6666 24.4722C62.5146 26.1098 59.6011 26.5841 56.9857 25.1159C56.6546 24.8787 56.3566 24.619 56.1028 24.3366C55.6614 24.7432 55.1427 25.1498 54.5688 25.4999C52.8141 26.5841 50.3642 26.3018 48.8523 24.8562C47.8922 23.9752 47.4287 22.5183 47.6052 21.0388C47.7597 19.7287 48.9075 15.2111 49.9779 11.1679C48.9295 11.2018 48.0136 11.1679 47.5059 10.9194C46.6893 10.5128 46.8879 9.12367 46.9652 8.72838C46.9762 8.67191 47.0314 8.62674 47.0866 8.62674C47.4838 8.62674 48.9847 8.61544 50.6511 8.60415C51.3464 6.00654 51.8982 4.05268 51.8982 4.05268C52.0968 3.36375 52.8362 2.99105 53.5094 2.99105C53.6418 2.99105 53.7632 3.00234 53.8846 3.03623C53.9287 3.04752 53.9508 3.0927 53.9398 3.14917C53.7632 4.26727 53.4211 6.30018 53.0128 8.60415C53.9177 8.60415 54.7344 8.61544 55.2861 8.62674C57.2284 8.67191 59.7887 8.78485 60.3074 8.80744C60.3626 8.80744 60.4178 8.85262 60.4288 8.90909C60.484 9.15755 60.5281 9.77872 59.8329 10.1853C59.237 10.5241 54.9109 10.8404 52.9245 10.9759C52.8141 10.9872 52.7148 10.9872 52.6045 10.9985C51.7768 15.6742 50.8939 20.5193 50.8498 20.7339C50.629 21.8633 51.3243 22.5522 51.9423 22.6877C53.079 22.9362 54.006 22.4392 54.7785 21.7164C54.3481 19.6045 55.0213 17.2327 56.4008 15.5725C58.641 12.8846 62.7574 12.4328 64.8211 13.7542C66.7634 15.053 67.4476 17.6054 67.1607 19.8416ZM64.0706 16.0469C62.647 14.2398 60.0646 14.8497 58.6079 16.5212C57.1512 18.204 57.1291 20.9597 58.7183 22.123C60.2081 23.2072 62.5808 22.6312 63.7506 20.892C64.5672 19.6722 65.3066 17.6167 64.0706 16.0469ZM80.0946 10.3886C80.7347 10.8178 81.5403 10.6145 82.059 10.2192C82.4121 9.94813 82.6439 9.50766 82.6991 9.03332C82.7653 8.53638 82.6439 7.83616 82.1031 7.47475C81.8934 7.33922 81.6507 7.28275 81.3968 7.28275C80.9995 7.28275 80.5912 7.42957 80.2712 7.62157C80.1719 7.68934 80.0946 7.7571 80.0173 7.84745C79.9732 7.90392 79.9291 7.97169 79.896 8.03945C79.4435 8.85262 79.3442 9.85778 80.0946 10.3886ZM94.9267 13.7768C93.459 12.8281 90.9317 12.7942 88.7908 13.8333C89.2543 11.2243 90.2586 4.06397 90.402 3.16046C90.4131 3.12657 90.402 3.10399 90.391 3.0814C90.38 3.05881 90.3579 3.04752 90.3358 3.04752C90.2144 3.02493 90.093 3.00234 89.9606 3.00234C89.2874 3.00234 88.548 3.37504 88.3494 4.06397C88.3494 4.06397 84.4206 20.2934 84.2882 21.0501C83.3833 22.4844 82.2907 23.0378 81.0989 22.6651C80.1056 22.3489 80.1608 21.5696 80.1939 21.1856C80.2491 20.5758 81.2754 14.5561 81.463 13.2121C81.4741 13.1217 81.4189 13.0427 81.3306 13.0201C81.1209 12.9862 80.9002 12.9636 80.6795 12.9636C79.9511 12.9636 79.2007 13.2347 78.7593 14.3641C78.7482 14.4092 77.4571 19.0285 77.2143 20.0223C77.1812 20.1466 77.1591 20.2708 77.126 20.395C76.1769 21.8633 74.7091 23.1508 72.5903 22.6877C71.9723 22.5522 71.288 22.0891 71.4977 20.7339C71.5529 20.3725 73.4952 8.8752 74.058 5.20466C74.0691 5.14819 74.047 5.10302 74.0028 5.09172C73.8815 5.05784 73.749 5.04655 73.6276 5.04655C72.9545 5.04655 72.2261 5.41925 72.0164 6.10818C72.0164 6.10818 68.9154 17.7523 68.2532 21.0388C67.9552 22.4844 68.1649 23.8962 69.423 25.0369C70.5928 26.1098 72.8441 26.4486 74.7091 25.6467C75.7906 25.1837 76.6956 24.427 77.3246 23.7719C78.1413 25.4434 80.0946 26.5277 81.8934 26.0872C83.284 25.7484 84.3434 24.7206 85.0386 23.8623C85.3145 24.2689 85.6346 24.6303 85.9767 24.9126C87.5769 26.2114 89.8392 26.4486 91.8919 25.8274C92.9292 25.5903 93.9225 25.1272 94.7832 24.4722C96.1958 23.3767 97.0897 21.6035 97.2773 19.8416C97.5643 17.6054 96.869 15.053 94.9267 13.7768ZM93.9114 21.1517C92.7527 22.891 90.093 23.5461 88.6032 22.4618C87.003 21.2986 87.312 18.4525 88.7687 16.781C90.2255 15.0982 92.8078 14.4996 94.2315 16.3066C95.4675 17.8652 94.7281 19.9207 93.9114 21.1517Z" fill="#A0FFE8"/>
</svg>
