<svg width="273" height="331" viewBox="0 0 273 331" fill="none" xmlns="http://www.w3.org/2000/svg">
<g clip-path="url(#clip0_0_289)">
<path d="M-0.0722656 290.006H8.90228V306.592L24.8249 290.006H36.5497L18.3835 308.548L38.1419 329.987H25.5486L8.90228 311.01V329.987H-0.0722656V290.006Z" fill="#EEE5D7"/>
<path d="M51.6757 312.893L36.2598 290.006H47.478L56.163 304.926L65.3547 290.006H75.9939L60.6503 312.893V329.987H51.6757V312.893Z" fill="#EEE5D7"/>
<path d="M79.3965 290.006H93.0031L102.412 316.08H102.557L112.038 290.006H125.572V329.987H116.597V299.277H116.453L105.741 329.987H98.8655L88.5158 299.277H88.371V329.987H79.3965V290.006Z" fill="#EEE5D7"/>
<path d="M132.014 309.997C132.014 306.81 132.593 303.913 133.678 301.305C134.764 298.698 136.284 296.525 138.238 294.642C140.192 292.831 142.508 291.382 145.258 290.441C147.936 289.427 150.904 288.992 154.088 288.992C157.273 288.992 160.24 289.499 162.918 290.441C165.596 291.455 167.912 292.831 169.938 294.642C171.893 296.452 173.412 298.698 174.498 301.305C175.584 303.913 176.163 306.81 176.163 309.997C176.163 313.183 175.584 316.081 174.498 318.688C173.412 321.295 171.893 323.468 169.938 325.351C167.984 327.162 165.668 328.611 162.918 329.552C160.24 330.566 157.273 331.001 154.088 331.001C150.904 331.001 147.936 330.494 145.258 329.552C142.58 328.611 140.264 327.162 138.238 325.351C136.284 323.541 134.764 321.295 133.678 318.688C132.593 316.081 132.014 313.183 132.014 309.997ZM141.422 309.997C141.422 311.88 141.712 313.618 142.291 315.139C142.87 316.732 143.738 318.036 144.824 319.195C145.91 320.354 147.285 321.223 148.805 321.875C150.397 322.527 152.134 322.816 154.016 322.816C155.898 322.816 157.707 322.527 159.227 321.875C160.819 321.223 162.122 320.354 163.207 319.195C164.293 318.036 165.162 316.66 165.741 315.139C166.32 313.546 166.609 311.88 166.609 309.997C166.609 308.186 166.32 306.448 165.741 304.854C165.162 303.261 164.293 301.885 163.207 300.726C162.122 299.567 160.747 298.698 159.227 298.046C157.635 297.394 155.898 297.104 154.016 297.104C152.134 297.104 150.325 297.394 148.805 298.046C147.213 298.698 145.91 299.567 144.824 300.726C143.738 301.885 142.87 303.261 142.291 304.854C141.712 306.448 141.422 308.113 141.422 309.997Z" fill="#EEE5D7"/>
<path d="M182.604 290.006H194.907L212.277 317.746H212.35V290.006H221.397V329.987H209.6L191.795 301.522H191.65V329.987H182.604V290.006Z" fill="#EEE5D7"/>
<path d="M227.838 309.997C227.838 306.81 228.417 303.913 229.503 301.305C230.588 298.698 232.108 296.525 234.062 294.642C236.016 292.831 238.332 291.382 241.083 290.441C243.76 289.427 246.728 288.992 249.912 288.992C253.097 288.992 256.064 289.499 258.742 290.441C261.42 291.455 263.736 292.831 265.763 294.642C267.717 296.452 269.237 298.698 270.322 301.305C271.408 303.913 271.987 306.81 271.987 309.997C271.987 313.183 271.408 316.081 270.322 318.688C269.237 321.295 267.717 323.468 265.763 325.351C263.808 327.162 261.492 328.611 258.742 329.552C256.064 330.566 253.097 331.001 249.912 331.001C246.728 331.001 243.76 330.494 241.083 329.552C238.405 328.611 236.089 327.162 234.062 325.351C232.108 323.541 230.588 321.295 229.503 318.688C228.417 316.081 227.838 313.183 227.838 309.997ZM237.174 309.997C237.174 311.88 237.464 313.618 238.043 315.139C238.622 316.732 239.49 318.036 240.576 319.195C241.662 320.354 243.037 321.223 244.557 321.875C246.149 322.527 247.886 322.816 249.768 322.816C251.722 322.816 253.459 322.527 254.979 321.875C256.571 321.223 257.874 320.354 259.032 319.195C260.117 318.036 260.986 316.66 261.565 315.139C262.144 313.546 262.433 311.88 262.433 309.997C262.433 308.186 262.144 306.448 261.565 304.854C260.986 303.261 260.117 301.885 259.032 300.726C257.946 299.567 256.571 298.698 254.979 298.046C253.386 297.394 251.649 297.104 249.768 297.104C247.814 297.104 246.076 297.394 244.557 298.046C242.964 298.698 241.662 299.567 240.576 300.726C239.49 301.885 238.622 303.261 238.043 304.854C237.536 306.448 237.174 308.113 237.174 309.997Z" fill="#EEE5D7"/>
</g>
<defs>
<clipPath id="clip0_0_289">
<rect width="273" height="331" fill="white"/>
</clipPath>
</defs>
</svg>
