<svg width="91" height="32" viewBox="0 0 91 32" fill="none" xmlns="http://www.w3.org/2000/svg">
<g clip-path="url(#clip0_0_217)">
<path d="M38.6609 16.2622C38.6609 20.5024 35.3532 23.627 31.2938 23.627C27.2345 23.627 23.9268 20.5024 23.9268 16.2622C23.9268 11.9921 27.2345 8.89746 31.2938 8.89746C35.3532 8.89746 38.6609 11.9921 38.6609 16.2622ZM35.436 16.2622C35.436 13.6125 33.5189 11.7995 31.2938 11.7995C29.0688 11.7995 27.1517 13.6125 27.1517 16.2622C27.1517 18.8854 29.0688 20.7249 31.2938 20.7249C33.5189 20.7249 35.436 18.8821 35.436 16.2622Z" fill="#A0FFE8"/>
<path d="M54.5555 16.2622C54.5555 20.5024 51.2477 23.627 47.1884 23.627C43.129 23.627 39.8213 20.5024 39.8213 16.2622C39.8213 11.9954 43.129 8.89746 47.1884 8.89746C51.2477 8.89746 54.5555 11.9921 54.5555 16.2622ZM51.3305 16.2622C51.3305 13.6125 49.4134 11.7995 47.1884 11.7995C44.9633 11.7995 43.0463 13.6125 43.0463 16.2622C43.0463 18.8854 44.9633 20.7249 47.1884 20.7249C49.4134 20.7249 51.3305 18.8821 51.3305 16.2622Z" fill="#A0FFE8"/>
<path d="M69.7846 9.3424V22.5644C69.7846 28.0034 66.5862 30.2247 62.8049 30.2247C59.2456 30.2247 57.1033 27.8373 56.2954 25.8849L59.1032 24.7128C59.6032 25.9115 60.8283 27.326 62.8016 27.326C65.222 27.326 66.7219 25.8285 66.7219 23.0094V21.9502H66.6093C65.8875 22.8434 64.4969 23.6237 62.742 23.6237C59.0701 23.6237 55.7061 20.4161 55.7061 16.2888C55.7061 12.1316 59.0701 8.89746 62.742 8.89746C64.4936 8.89746 65.8842 9.67777 66.6093 10.5444H66.7219V9.34572H69.7846V9.3424ZM66.9504 16.2888C66.9504 13.6955 65.2253 11.7995 63.0301 11.7995C60.8051 11.7995 58.941 13.6955 58.941 16.2888C58.941 18.8555 60.8051 20.7249 63.0301 20.7249C65.2253 20.7249 66.9504 18.8555 66.9504 16.2888Z" fill="#A0FFE8"/>
<path d="M74.832 1.59473V23.1777H71.6865V1.59473H74.832Z" fill="#A0FFE8"/>
<path d="M87.0937 18.6856L89.5969 20.3591C88.789 21.5578 86.8421 23.6231 83.4781 23.6231C79.3061 23.6231 76.1904 20.389 76.1904 16.2583C76.1904 11.8786 79.3326 8.89355 83.1171 8.89355C86.9282 8.89355 88.7923 11.9351 89.4015 13.5787L89.7359 14.4155L79.9187 18.493C80.6703 19.9706 81.8391 20.7243 83.4781 20.7243C85.1203 20.7243 86.2593 19.9141 87.0937 18.6856ZM79.3889 16.0359L85.9514 13.3031C85.5905 12.3834 84.5045 11.7425 83.2264 11.7425C81.5874 11.7425 79.3061 13.1935 79.3889 16.0359Z" fill="#A0FFE8"/>
<path d="M12.0216 14.3449V11.2204H22.5209C22.6235 11.7649 22.6765 12.4091 22.6765 13.1064C22.6765 15.4506 22.0375 18.3494 19.978 20.4147C17.9748 22.5066 15.4154 23.6223 12.0249 23.6223C5.74049 23.6223 0.456055 18.4888 0.456055 12.1866C0.456055 5.8844 5.74049 0.750977 12.0249 0.750977C15.5015 0.750977 17.9781 2.119 19.8389 3.90209L17.6404 6.10687C16.306 4.85174 14.4982 3.87552 12.0216 3.87552C7.43244 3.87552 3.84326 7.58447 3.84326 12.1866C3.84326 16.7888 7.43244 20.4977 12.0216 20.4977C14.9982 20.4977 16.6934 19.299 17.7795 18.2099C18.6602 17.3267 19.2396 16.0649 19.4681 14.3416L12.0216 14.3449Z" fill="#A0FFE8"/>
</g>
<defs>
<clipPath id="clip0_0_217">
<rect width="90.0605" height="30.5482" fill="white" transform="translate(0.334961 0.59668)"/>
</clipPath>
</defs>
</svg>
