<svg width="64" height="60" viewBox="0 0 64 60" fill="none" xmlns="http://www.w3.org/2000/svg">
<g clip-path="url(#clip0_0_192)">
<path d="M3.51064 51.1154L8.17897 45.8809H11.3414L6.63089 51.1994L11.9103 59.5581H8.83154L4.84957 53.2588C4.81242 53.2416 4.60427 53.4699 4.56445 53.5128C4.20269 53.9001 3.87741 54.3283 3.51064 54.712V59.5581H0.900391V45.8809H3.46044L3.51064 45.9315V51.1154Z" fill="#A0FFE8"/>
<path d="M35.103 45.8809V50.3386C35.4102 50.0306 35.7184 49.7713 36.118 49.5899C37.6801 48.8797 39.8142 49.3941 40.9269 50.6925C42.5787 52.6202 42.5342 56.8527 40.6588 58.6301C39.3162 59.9026 36.548 60.2639 35.2536 58.7483C35.197 58.6821 35.1679 58.5885 35.1033 58.5453V59.5584H32.627V45.9318L32.6772 45.8812H35.1033L35.103 45.8809ZM37.0373 51.3957C33.8056 51.6202 34.251 58.4973 37.8063 57.5075C40.3185 56.8078 40.1036 51.1826 37.0373 51.3957Z" fill="#A0FFE8"/>
<path d="M16.2222 49.2659C19.8477 49.2328 21.9239 52.2178 21.2656 55.7094C20.7423 58.486 18.3974 59.95 15.676 59.6927C9.48371 59.1074 9.6594 49.3257 16.2222 49.2659ZM16.1208 51.3955C12.8496 51.6214 13.0286 57.7417 16.3801 57.6006C19.6978 57.4604 19.5747 51.1571 16.1208 51.3955Z" fill="#A0FFE8"/>
<path d="M55.849 59.5586H53.3726V52.8213C53.3726 52.1337 52.872 51.488 52.1843 51.4201C50.422 51.2462 49.7568 53.4433 49.6584 54.8479V59.5586H47.1816V49.4273H49.6078L49.658 49.4779V51.0145C50.3039 50.1372 51.2456 49.4175 52.3523 49.2925C54.318 49.0707 55.8386 50.2341 55.8487 52.2813V59.5586H55.849Z" fill="#A0FFE8"/>
<path d="M31.0519 59.5579H28.6089V52.8543C28.6089 52.1721 28.1455 51.5045 27.4507 51.4228C25.4991 51.1925 24.882 53.8212 24.8596 55.3183L24.8609 59.5579H22.418V49.4266H24.8609V51.0476C25.4147 50.3056 26.1299 49.6653 27.0361 49.4097C28.3871 49.0284 30.0827 49.4215 30.741 50.7703C30.8477 50.9888 31.0519 51.5801 31.0519 51.8074V59.5579Z" fill="#A0FFE8"/>
<path d="M59.8319 49.4258H57.3555V59.5571H59.8319V49.4258Z" fill="#A0FFE8"/>
<path d="M45.6441 49.4258H43.2012V59.5571H45.6441V49.4258Z" fill="#A0FFE8"/>
<path d="M58.4523 45.7884C60.157 45.5911 60.4913 48.1044 58.9034 48.4387C57.035 48.8321 56.6632 45.9954 58.4523 45.7884Z" fill="#A0FFE8"/>
<path d="M44.2624 45.7888C46.115 45.5741 46.2917 48.4385 44.4481 48.4682C42.7615 48.4956 42.6347 45.9776 44.2624 45.7888Z" fill="#A0FFE8"/>
<path d="M63.3004 46.1627C63.9426 46.8108 63.7418 47.9941 62.8998 48.3517C61.7918 48.8225 60.7367 47.8303 61.0941 46.6645C61.3762 45.7443 62.6388 45.495 63.3004 46.1624V46.1627ZM62.2004 46.0928C60.7858 46.2681 61.1968 48.5702 62.6696 48.1197C63.799 47.7742 63.5283 45.9287 62.2004 46.0928Z" fill="#A0FFE8"/>
<path d="M62.4587 46.387C62.8783 46.4572 62.9245 47.0077 62.543 47.1806L62.9105 47.7713L62.6146 47.7662C62.5818 47.7453 62.3533 47.2526 62.2917 47.1975C62.2428 47.1539 62.2 47.1607 62.1408 47.1641V47.7719H61.873V46.438L61.9232 46.3873C62.0882 46.4066 62.3021 46.361 62.4587 46.3873V46.387ZM62.1408 46.9273L62.5112 46.9125C62.6397 46.6332 62.4045 46.5758 62.1726 46.6379L62.1411 46.9273H62.1408Z" fill="#A0FFE8"/>
<path d="M32.5256 0H16.6934C14.4713 0 12.6699 1.81789 12.6699 4.06028V30.5627L32.5256 0Z" fill="#A0FFE8"/>
<path d="M41.6863 19.2066L41.6612 19.1674L50.4383 5.49521C51.9586 3.12685 50.2743 0 47.478 0H33.724L12.668 32.411V35.2799C12.668 37.7414 14.6454 39.7369 17.0846 39.7369H28.3482L41.6859 19.2066H41.6863Z" fill="#A0FFE8"/>
<path d="M42.2828 20.1367L29.5488 39.7377H48.3778C51.1741 39.7377 52.8587 36.6109 51.3381 34.2425L42.2825 20.1367H42.2828Z" fill="#A0FFE8"/>
</g>
<defs>
<clipPath id="clip0_0_192">
<rect width="62.7789" height="59.7412" fill="white" transform="translate(0.900391)"/>
</clipPath>
</defs>
</svg>
