<svg width="274" height="273" viewBox="0 0 274 273" fill="none" xmlns="http://www.w3.org/2000/svg">
<g clip-path="url(#clip0_0_298)">
<path d="M273.984 4.21582H265.599V268.84H273.984V4.21582Z" fill="#EEE5D7"/>
<path d="M266.908 268.87L124.009 133.095L266.908 -1.82812L272.686 4.26045L136.189 133.11L272.686 262.812L266.908 268.87Z" fill="#EEE5D7"/>
<path d="M132.982 130.083L127.202 136.147L266.898 268.886L272.678 262.821L132.982 130.083Z" fill="#EEE5D7"/>
<path d="M269.79 270.027H142.607L3.10742 135.804L8.93072 129.776L145.976 261.655H269.79V270.027Z" fill="#EEE5D7"/>
<path d="M129.908 138.97L124.009 132.76L264.972 -0.138672L270.872 6.05645L129.908 138.97Z" fill="#EEE5D7"/>
<path d="M8.89929 135.835L3.13696 129.746L143.643 -2.96956L269.789 -3V5.37179L146.982 5.40223L8.89929 135.835Z" fill="#EEE5D7"/>
<path d="M201.844 133.536C201.844 123.322 210.137 115.042 220.366 115.042C230.595 115.042 238.888 123.322 238.888 133.536C238.888 143.75 230.595 152.03 220.366 152.03C210.137 152.03 201.844 143.75 201.844 133.536Z" fill="#EEE5D7"/>
<path d="M9.75186 130.419L9.73022 138.669L131.943 138.988L131.965 130.738L9.75186 130.419Z" fill="#EEE5D7"/>
<path d="M274.001 273.027H0.549805V0H273.986V273.027H274.001ZM8.93414 264.655H265.601V8.37179H8.93414V264.655Z" fill="#EEE5D7"/>
</g>
<defs>
<clipPath id="clip0_0_298">
<rect width="274" height="273" fill="white"/>
</clipPath>
</defs>
</svg>
