<svg width="92" height="16" viewBox="0 0 92 16" fill="none" xmlns="http://www.w3.org/2000/svg">
<g clip-path="url(#clip0_0_230)">
<path d="M50.0508 14.3622H61.9229V13.0554H52.0861V8.87403H59.4747V7.55183H52.0861V3.69945H61.9229V2.39746H50.0508V14.3622Z" fill="#A0FFE8"/>
<path d="M56.2206 0.461914L54.6133 2.08909L59.6591 0.461914H56.2206Z" fill="#A0FFE8"/>
<path d="M81.8537 13.0554V2.39746H79.998V14.3622H91.9998V13.0554H81.8537Z" fill="#A0FFE8"/>
<path d="M69.6165 2.39746L62.8652 14.3622H65.1473L66.8745 11.2654H74.9716L76.7135 14.3622H78.972L72.2153 2.39746H69.6165ZM67.729 9.76565L70.9104 4.05075L74.129 9.76565H67.729Z" fill="#A0FFE8"/>
<path d="M43.6101 9.35911C46.6519 8.6277 46.9475 6.58819 46.9321 5.85906C46.7505 3.72162 45.1523 2.39746 42.2807 2.39746H33.9121V14.3622H35.8198V9.34315H41.268L45.2761 14.3622H47.6806C47.6806 14.3622 44.7962 10.9843 43.6101 9.35911ZM42.0202 7.92945H35.8198V3.81365H42.2363C43.7136 3.81365 44.5445 4.43511 44.8439 5.22455C45.0419 5.76569 44.915 6.47607 44.5873 6.9597C44.0511 7.7593 43.0324 7.92945 42.0202 7.92945Z" fill="#A0FFE8"/>
<path d="M22.4463 0.370117C17.0611 0.370117 13.3906 3.79161 13.3906 7.93281C13.3906 12.2925 17.4452 15.3701 22.4463 15.3701C27.4441 15.3701 31.497 12.3364 31.497 7.93281C31.497 3.79161 27.7811 0.370117 22.4463 0.370117ZM22.3817 13.8849C18.6559 13.8849 15.5861 11.187 15.5861 7.93685C15.5861 4.69121 18.511 1.86402 22.5261 1.86402C26.4417 1.86402 29.3201 4.69121 29.3201 7.93685C29.3201 11.1868 26.1058 13.8849 22.3817 13.8849Z" fill="#A0FFE8"/>
<path d="M8.58594 6.63016H9.96249L12.4611 2.39746H10.4504L8.58594 6.63016Z" fill="#A0FFE8"/>
<path d="M1.85667 13.0554V2.39746H0V14.3622H12.0013V13.0554H1.85667Z" fill="#A0FFE8"/>
</g>
<defs>
<clipPath id="clip0_0_230">
<rect width="92" height="15" fill="white" transform="translate(0 0.370117)"/>
</clipPath>
</defs>
</svg>
