<svg width="95" height="21" viewBox="0 0 95 21" fill="none" xmlns="http://www.w3.org/2000/svg">
<g clip-path="url(#clip0_0_224)">
<path d="M39.2906 4.87033V16.8703H37.2023V7.45367H37.1744L33.4434 16.8703H32.0512L28.2366 7.45367H28.2088V16.8703H26.2876V4.87033H29.2947L32.7473 13.7592H32.803L36.4505 4.87033H39.2906ZM41.0169 5.787C41.0169 5.45367 41.1282 5.17589 41.3788 4.95367C41.6294 4.73145 41.9079 4.62033 42.242 4.62033C42.6039 4.62033 42.9102 4.73145 43.133 4.95367C43.3557 5.17589 43.4949 5.45367 43.4949 5.787C43.4949 6.12033 43.3836 6.39811 43.133 6.62033C42.8824 6.84256 42.6039 6.95367 42.242 6.95367C41.88 6.95367 41.6016 6.84256 41.3788 6.62033C41.1561 6.37033 41.0169 6.09256 41.0169 5.787ZM43.2722 8.25922V16.8703H41.2396V8.25922H43.2722ZM49.4256 15.3981C49.7319 15.3981 50.066 15.3426 50.428 15.1759C50.79 15.037 51.1241 14.8426 51.4304 14.6203V16.5092C51.0962 16.7037 50.7343 16.8426 50.3166 16.9259C49.899 17.0092 49.4535 17.0648 48.9523 17.0648C47.6715 17.0648 46.6413 16.6759 45.8617 15.8703C45.0542 15.0648 44.6644 14.037 44.6644 12.8148C44.6644 11.4259 45.082 10.287 45.8895 9.39811C46.697 8.50922 47.8385 8.06478 49.3421 8.06478C49.7319 8.06478 50.1217 8.12033 50.4837 8.20367C50.8735 8.287 51.1798 8.42589 51.4025 8.537V10.4814C51.0962 10.2592 50.7621 10.0648 50.4558 9.95367C50.1217 9.84256 49.7876 9.75922 49.4535 9.75922C48.646 9.75922 48.0056 10.0092 47.5044 10.537C47.0032 11.0648 46.7805 11.7592 46.7805 12.6481C46.7805 13.5092 47.0311 14.2037 47.5044 14.6759C47.9778 15.1481 48.6182 15.3981 49.4256 15.3981ZM57.194 8.12033C57.3611 8.12033 57.5003 8.12033 57.6395 8.14811C57.7787 8.17589 57.8901 8.20367 57.9736 8.23145V10.287C57.8622 10.2037 57.723 10.1203 57.5003 10.0648C57.2775 10.0092 57.0548 9.95367 56.7485 9.95367C56.2473 9.95367 55.8297 10.1759 55.4955 10.5926C55.1614 11.0092 54.9665 11.6481 54.9665 12.537V16.8703H52.9339V8.25922H54.9665V9.62033H54.9944C55.1893 9.14811 55.4677 8.787 55.8297 8.50922C56.2195 8.25922 56.665 8.12033 57.194 8.12033ZM58.085 12.7037C58.085 11.287 58.5026 10.1481 59.2823 9.31478C60.0897 8.48145 61.2035 8.06478 62.6235 8.06478C63.96 8.06478 65.018 8.45367 65.7698 9.25922C66.5216 10.0648 66.9114 11.1481 66.9114 12.5092C66.9114 13.8981 66.4938 15.0092 65.7141 15.8426C64.9067 16.6759 63.8208 17.0926 62.4286 17.0926C61.0921 17.0926 60.034 16.7037 59.2544 15.9259C58.4748 15.1203 58.085 14.037 58.085 12.7037ZM60.2011 12.6203C60.2011 13.5092 60.396 14.2037 60.8137 14.6759C61.2313 15.1481 61.816 15.3981 62.5678 15.3981C63.2917 15.3981 63.8765 15.1759 64.2663 14.6759C64.6561 14.2037 64.851 13.5092 64.851 12.5648C64.851 11.6481 64.6561 10.9537 64.2663 10.4537C63.8765 9.98145 63.2917 9.73145 62.5957 9.73145C61.8439 9.73145 61.287 9.98144 60.8694 10.4814C60.396 11.0092 60.2011 11.7037 60.2011 12.6203ZM69.9464 10.537C69.9464 10.8148 70.0299 11.0648 70.2248 11.2314C70.4197 11.3981 70.8095 11.5926 71.4499 11.8426C72.2574 12.1759 72.8421 12.537 73.1484 12.9259C73.4825 13.3426 73.6496 13.8148 73.6496 14.3981C73.6496 15.2037 73.3433 15.8426 72.7029 16.3426C72.0903 16.8426 71.2272 17.0648 70.1691 17.0648C69.8071 17.0648 69.4173 17.0092 68.9718 16.9259C68.5263 16.8426 68.1644 16.7314 67.8581 16.5926V14.5926C68.2201 14.8426 68.6377 15.0648 69.0554 15.2037C69.473 15.3426 69.8628 15.4259 70.2248 15.4259C70.6703 15.4259 71.0323 15.3703 71.2272 15.2314C71.4499 15.0926 71.5613 14.8981 71.5613 14.5926C71.5613 14.3148 71.4499 14.0926 71.2272 13.8703C71.0044 13.6759 70.5589 13.4537 69.9464 13.2037C69.1946 12.8981 68.6656 12.537 68.3593 12.1481C68.053 11.7592 67.8859 11.2592 67.8859 10.6481C67.8859 9.87033 68.1922 9.23145 68.8048 8.73145C69.4173 8.23145 70.2248 7.98145 71.1993 7.98145C71.5056 7.98145 71.8397 8.00922 72.2017 8.09256C72.5637 8.17589 72.8978 8.25922 73.1484 8.34256V10.3148C72.8699 10.1481 72.5637 9.98145 72.2017 9.84256C71.8397 9.70367 71.4778 9.64811 71.1436 9.64811C70.7538 9.64811 70.4476 9.73145 70.2526 9.87033C70.0577 10.0648 69.9464 10.2592 69.9464 10.537ZM74.5127 12.7037C74.5127 11.287 74.9304 10.1481 75.71 9.31478C76.5175 8.48145 77.6312 8.06478 79.0512 8.06478C80.3877 8.06478 81.4458 8.45367 82.1975 9.25922C82.9493 10.0648 83.3391 11.1481 83.3391 12.5092C83.3391 13.8981 82.9215 15.0092 82.1419 15.8426C81.3344 16.6759 80.2485 17.0926 78.8563 17.0926C77.5198 17.0926 76.4618 16.7037 75.6821 15.9259C74.9304 15.1203 74.5127 14.037 74.5127 12.7037ZM76.6288 12.6203C76.6288 13.5092 76.8237 14.2037 77.2414 14.6759C77.659 15.1481 78.2438 15.3981 78.9955 15.3981C79.7195 15.3981 80.3042 15.1759 80.694 14.6759C81.0838 14.2037 81.2787 13.5092 81.2787 12.5648C81.2787 11.6481 81.0838 10.9537 80.694 10.4537C80.3042 9.98145 79.7195 9.73145 79.0234 9.73145C78.2716 9.73145 77.7147 9.98144 77.2971 10.4814C76.8516 11.0092 76.6288 11.7037 76.6288 12.6203ZM90.1051 9.92589H87.0702V16.8703H85.0098V9.92589H83.5619V8.25922H85.0098V7.06478C85.0098 6.17589 85.316 5.42589 85.9007 4.84256C86.4855 4.25922 87.2372 3.98145 88.1561 3.98145C88.4067 3.98145 88.6294 4.00922 88.8243 4.00922C89.0192 4.00922 89.1863 4.06478 89.3255 4.12033V5.87033C89.2698 5.84256 89.1306 5.787 88.9635 5.73145C88.7965 5.67589 88.6016 5.64811 88.3788 5.64811C87.9612 5.64811 87.6271 5.787 87.4043 6.037C87.1816 6.287 87.0702 6.70367 87.0702 7.20367V8.23145H90.1051V6.287L92.1377 5.67589V8.23145H94.1981V9.89811H92.1377V13.9259C92.1377 14.4537 92.2491 14.8148 92.4162 15.037C92.6111 15.2592 92.9173 15.3703 93.335 15.3703C93.4464 15.3703 93.5856 15.3426 93.7526 15.287C93.9197 15.2314 94.0589 15.1759 94.1703 15.0926V16.7592C94.0311 16.8426 93.8362 16.8981 93.5299 16.9537C93.2236 17.0092 92.9452 17.037 92.6389 17.037C91.7757 17.037 91.1353 16.8148 90.7177 16.3703C90.3 15.9259 90.0773 15.2314 90.0773 14.3148L90.1051 9.92589Z" fill="#A0FFE8"/>
<path d="M9.72027 0.870117H0.197754V10.3701H9.72027V0.870117Z" fill="#A0FFE8"/>
<path d="M20.2457 0.870117H10.7231V10.3701H20.2457V0.870117Z" fill="#A0FFE8"/>
<path d="M9.72027 11.3701H0.197754V20.8701H9.72027V11.3701Z" fill="#A0FFE8"/>
<path d="M20.2457 11.3701H10.7231V20.8701H20.2457V11.3701Z" fill="#A0FFE8"/>
</g>
<defs>
<clipPath id="clip0_0_224">
<rect width="94" height="20" fill="white" transform="translate(0.197754 0.870117)"/>
</clipPath>
</defs>
</svg>
