<svg width="92" height="26" viewBox="0 0 92 26" fill="none" xmlns="http://www.w3.org/2000/svg">
<path d="M12.9328 23.8962C11.5619 24.1437 10.167 24.2179 8.72391 24.4154L4.32241 11.1652V24.9841C2.95153 25.1324 1.70089 25.3302 0.4021 25.5279V0.213867H4.058L9.06058 14.5768V0.213867H12.9328V23.8962ZM20.509 9.48416C22.0003 9.48416 24.2852 9.40997 25.656 9.40997V13.3652C23.9483 13.3652 21.9522 13.3652 20.509 13.4394V19.323C22.7699 19.1748 25.0308 18.9768 27.3155 18.9026V22.7094L16.6607 23.5748V0.213867H27.3155V4.16919H20.509V9.48416ZM41.6261 4.16929H37.6336V22.3637C36.3348 22.3637 35.036 22.3637 33.7855 22.413V4.16929H29.7931V0.213867H41.6262L41.6261 4.16929ZM47.8794 9.2123H53.1467V13.1675H47.8794V22.1413H44.1031V0.213867H54.8543V4.16919H47.8794V9.2123ZM61.1076 18.6803C63.2964 18.7296 65.509 18.9029 67.6496 19.0263V22.9322C64.2103 22.7096 60.771 22.4874 57.2595 22.413V0.213867H61.1076V18.6803ZM70.8965 23.2042C72.1231 23.2785 73.4219 23.3526 74.6726 23.5007V0.213867H70.8965V23.2042ZM91.5327 0.213867L86.6502 12.2529L91.5327 25.5279C90.0895 25.3302 88.6464 25.0582 87.2033 24.811L84.4375 17.4938L81.6238 24.2179C80.2285 23.9704 78.8817 23.8963 77.4869 23.6985L82.4414 12.1045L77.9678 0.213867H82.1044L84.6298 6.86377L87.3237 0.213867L91.5327 0.213867Z" fill="#A0FFE8"/>
</svg>
