<svg width="91" height="28" viewBox="0 0 91 28" fill="none" xmlns="http://www.w3.org/2000/svg">
<g clip-path="url(#clip0_0_209)">
<path d="M24.5098 27.5404L21.4303 26.8402C20.4472 26.5244 19.4947 26.1362 18.5644 25.6768C8.89468 30.1691 -1.08281 22.2942 0.687181 11.1004C1.86522 3.65372 8.32034 -0.865985 15.2887 0.418406C25.2721 2.25699 28.6723 15.3081 22.0469 22.9683L25.3026 23.6236L24.8622 27.5416H24.5098V27.5404ZM11.1333 15.8798L14.6568 14.704C15.2688 16.4926 16.0545 18.2651 17.2478 19.7055C17.3817 19.8678 18.3284 20.8838 18.4106 20.9075C18.6138 20.9637 19.1165 20.357 19.2738 20.1723C23.8556 14.7839 21.0943 4.71094 13.8934 4.04316C1.95566 2.93352 1.09356 22.7848 12.8598 23.0531L14.7438 22.831C14.8894 22.7111 14.7884 22.7311 14.7461 22.6412C14.5805 22.2917 14.0755 21.8249 13.8265 21.4692C12.6449 19.7779 11.7687 17.8731 11.1345 15.881L11.1333 15.8798Z" fill="#A0FFE8"/>
<path d="M90.6013 16.7178V18.4902C89.415 30.5141 72.1274 29.392 72.8203 16.9462C73.4675 5.32679 89.6711 5.23941 90.6013 16.7178ZM81.2557 11.8948C74.5868 12.4427 75.1823 23.689 82.1084 23.1535C88.8924 22.6305 88.1841 11.3244 81.2557 11.8948Z" fill="#A0FFE8"/>
<path d="M34.7007 8.1629C41.2768 7.49262 46.178 13.4552 44.4433 20.2641C42.2528 28.8542 30.2516 29.2873 27.5021 20.872C25.6745 15.2801 28.9773 8.74706 34.7018 8.1629H34.7007ZM35.4054 11.895C28.7236 12.5553 29.4189 23.6829 36.2581 23.155C43.0973 22.627 42.2504 11.2185 35.4054 11.895Z" fill="#A0FFE8"/>
<path d="M61.6477 26.5148H57.9515V15.4595C57.9515 14.8267 57.1987 13.4424 56.7629 12.9881C54.2706 10.3844 50.1187 12.3403 50.1187 15.9263V26.516H46.6868V8.50833H50.1187V10.3744C50.895 9.47568 51.6878 8.70554 52.8271 8.34856C56.4082 7.22518 60.2312 9.85013 61.32 13.4736C61.4022 13.747 61.6465 14.6744 61.6465 14.8991V26.5148H61.6477Z" fill="#A0FFE8"/>
<path d="M67.1921 3.845V8.5095H71.768V12.148H67.1921V20.6844C67.1921 21.085 67.6431 22.0362 67.898 22.3607C68.9903 23.7512 70.8155 23.4054 72.2073 22.7826V26.4673C71.7116 26.7269 70.9729 26.8517 70.4079 26.8916C65.9401 27.2024 63.8013 24.2043 63.5805 19.7545C63.3268 14.6444 63.7813 9.30085 63.5805 4.16578L63.7167 3.84375H67.1933L67.1921 3.845Z" fill="#A0FFE8"/>
</g>
<defs>
<clipPath id="clip0_0_209">
<rect width="90.118" height="27.3392" fill="white" transform="translate(0.481689 0.201172)"/>
</clipPath>
</defs>
</svg>
