<svg width="192" height="191" viewBox="0 0 192 191" fill="none" xmlns="http://www.w3.org/2000/svg">
<path d="M96.0624 190.673C76.9516 190.673 60.1887 186.689 45.8284 178.721C31.6318 170.754 20.6022 159.676 12.6302 145.542C4.65832 131.19 0.672363 114.491 0.672363 95.3363C0.672363 76.2363 4.65832 59.4829 12.6302 45.1306C20.6022 30.7783 31.6864 19.7003 45.8284 11.9511C60.1887 3.98371 76.9516 0 96.0624 0C115.392 0 132.209 3.98371 146.569 11.9511C160.93 19.7549 172.069 30.8329 180.041 45.1306C188.012 59.4829 191.998 76.1817 191.998 95.3363C191.998 114.436 188.012 131.19 180.041 145.542C172.069 159.731 160.93 170.754 146.569 178.721C132.209 186.689 115.392 190.673 96.0624 190.673ZM57.2948 95.3363C57.2948 107.724 60.9532 117.929 68.2153 125.896C75.4774 133.7 84.8689 137.575 96.39 137.575C107.911 137.575 117.303 133.7 124.565 125.896C131.991 117.929 135.704 107.724 135.704 95.3363C135.704 82.7849 131.991 72.58 124.565 64.7763C117.303 56.9726 107.911 53.098 96.39 53.098C84.8689 53.098 75.4774 56.9726 68.2153 64.7763C60.8986 72.58 57.2948 82.7849 57.2948 95.3363Z" fill="#DEFF4E"/>
</svg>
